<?xml version="1.0" encoding="iso-8859-1"?>
<!-- Generator: Adobe Illustrator 19.0.0, SVG Export Plug-In . SVG Version: 6.00 Build 0)  -->
<svg version="1.1" id="Layer_1" xmlns="http://www.w3.org/2000/svg" xmlns:xlink="http://www.w3.org/1999/xlink" x="0px" y="0px"
	 viewBox="0 0 100 100" style="enable-background:new 0 0 100 100;" xml:space="preserve">
<path id="XMLID_1337_" style="fill-rule:evenodd;clip-rule:evenodd;fill:#231F20;" d="M23.642,51.055l-0.013-1.691
	c-0.003-0.372,0.178-0.51,0.437-0.518c0.368-0.013,0.873,0.158,1.347,0.36l12.979,5.539c0.254,0.138,0.457,0.371,0.586,0.64
	c0.111,0.229,0.166,0.483,0.154,0.725c-0.139,0.591-0.172,1.33-0.176,2.232L23.642,51.055L23.642,51.055z M54.419,30.903
	L20.801,31.46L21.1,57.869l7.048-0.397l10.211,4.996l0.384,6.602l1.369,0.028l0.296-6.556l38.067-3.305l0.767,5.314l1.208,0.002
	l0.045-9.058l-41.243,3.553l-0.139-0.025l-16.022-7.584l0.005-0.005l-0.014-2.066c-0.005-0.764,0.393-1.047,0.965-1.067
	c0.464-0.016,1.045,0.176,1.578,0.403l12.767,5.448c0.078,0.027,0.154,0.059,0.226,0.097l0.1,0.043
	c0.283,0.12,0.691,0.206,1.057,0.237c0.259,0.022,0.481,0.023,0.592-0.006c0.018-0.007,0.035-0.013,0.053-0.02
	c0.003-0.002,0.005-0.003,0.008-0.005l0.001,0.002c0.272-0.1,0.593-0.162,0.971-0.188l36.145-2.469L55.57,43.12
	c-0.005-0.009-0.01-0.017-0.015-0.026c0.241,1.329,0.872,2.638,1.974,3.947c-5.861-0.441-11.77-0.006-17.12,1.671
	c0.064-0.179,0.124-0.358,0.181-0.537c-5.259-0.484-10.386-0.438-15.383,0.126c0.499-2.814,0.235-5.445-0.726-7.601
	c6.057,0.628,12.031,0.458,17.942-0.302c-0.191,0.37-0.363,0.741-0.517,1.115l12.513-0.364V30.903L54.419,30.903z M79.569,55.16
	l-0.018-1.933c-0.003-0.353-0.199-0.671-0.627-0.841l-0.221-0.087L41.44,54.856c-0.915,0.062-1.397,0.373-1.643,0.958
	c-0.048,0.112-0.088,0.235-0.121,0.369c-0.01,0.137-0.036,0.272-0.079,0.402c-0.077,0.512-0.094,1.143-0.095,1.892L79.569,55.16
	L79.569,55.16z M39.502,55.213c-0.01-0.022-0.02-0.044-0.03-0.066c-0.018-0.038-0.038-0.075-0.058-0.112
	c0.067,0.01,0.135,0.019,0.201,0.027C39.574,55.11,39.537,55.16,39.502,55.213L39.502,55.213z M41.297,43.424
	c-0.202,0.909-0.281,1.829-0.215,2.766C41.246,45.268,41.318,44.346,41.297,43.424L41.297,43.424z"/>
</svg>
