<?xml version="1.0" encoding="iso-8859-1"?>
<!-- Generator: Adobe Illustrator 19.0.0, SVG Export Plug-In . SVG Version: 6.00 Build 0)  -->
<svg version="1.1" id="Layer_1" xmlns="http://www.w3.org/2000/svg" xmlns:xlink="http://www.w3.org/1999/xlink" x="0px" y="0px"
	 viewBox="0 0 100 100" style="enable-background:new 0 0 100 100;" xml:space="preserve">
<path id="XMLID_1022_" style="fill-rule:evenodd;clip-rule:evenodd;fill:#231F20;" d="M64.809,66.777
	c4.739,0.572,8.169,2.243,8.169,4.216c0,2.445-5.269,4.427-11.769,4.427S49.44,73.437,49.44,70.993c0-2.05,3.702-3.773,8.726-4.278
	l-4.292-5.477h14.672L64.809,66.777L64.809,66.777z M50.302,44.26c3.895,2.115,6.714,8.295,6.714,15.59
	c0,0.241-0.004,0.48-0.01,0.718h-3.133h-1.483l0.809,1.033l3.187,4.067c-0.047,0.212-0.097,0.421-0.149,0.629
	c-1.882,0.318-3.524,0.812-4.78,1.428c-1.771,0.868-2.823,1.998-2.823,3.268c0,1.338,1.18,2.528,3.139,3.416
	c-1.327,1.159-2.833,1.814-4.429,1.814c-2.376,0-4.552-1.451-6.236-3.857l0.068-0.137c1.32-2.698,2.137-6.411,2.137-10.498
	c0-3.248-0.516-6.26-1.392-8.714c-0.525-1.471-1.185-2.749-1.948-3.768c1.254-2.495,2.943-4.346,4.869-5.216l-3.528-20.254h12.058
	L50.302,44.26L50.302,44.26z M37.583,47.93c2.856,1.872,4.924,7.343,4.924,13.801c0,8.004-3.176,14.492-7.093,14.492
	c-3.918,0-7.094-6.488-7.094-14.492c0-6.708,2.231-12.35,5.26-14.002l-2.587-17.929h8.843L37.583,47.93L37.583,47.93z"/>
</svg>
