<?xml version="1.0" encoding="iso-8859-1"?>
<!-- Generator: Adobe Illustrator 19.0.0, SVG Export Plug-In . SVG Version: 6.00 Build 0)  -->
<svg version="1.1" id="Layer_1" xmlns="http://www.w3.org/2000/svg" xmlns:xlink="http://www.w3.org/1999/xlink" x="0px" y="0px"
	 viewBox="0 0 100 100" style="enable-background:new 0 0 100 100;" xml:space="preserve">
<path id="XMLID_1298_" style="fill-rule:evenodd;clip-rule:evenodd;fill:#231F20;" d="M51.989,66.971
	c2.488,0.221,4.34,0.973,4.34,2.055c0,1.082-2.531,2.113-5.653,2.113c-3.122,0-5.653-1.03-5.653-2.113
	c0-1.082,1.851-1.834,4.339-2.055V38.402c-5.607-0.152-9.962-1.288-9.962-2.666c0-1.482,5.036-2.684,11.249-2.684
	c6.213,0,11.25,1.202,11.25,2.684c0,1.374-4.328,2.507-9.909,2.665V66.971L51.989,66.971z M27.99,46.173
	c0.097,1,0.927,7.973,1,8.826c0.073,0.853,0.054,2.61,0.794,3.394c0.043,0.045,0.091,0.086,0.142,0.124
	c0.02-0.017,0.041-0.035,0.063-0.055c0.054,0.12,0.313,0.173,0.691,0.183v-1.382c-0.129-0.05-0.207-0.111-0.207-0.179l0,0V45.398
	c-0.186-0.022-0.364-0.048-0.532-0.079c-0.847-0.156-1.666-0.406-2.402-0.685C27.752,45.032,27.931,45.561,27.99,46.173
	L27.99,46.173z M34.781,58.229c1.317-0.159,4.267-0.707,4.62-0.841c0,0.007,0.038,0.056,0.072,0.098
	c0.308-0.182,0.496-0.435,0.635-0.805c0.157-0.42,0.171-3.218,0.171-3.218s-0.317-7.582-0.341-8.217
	c-0.018-0.466-0.154-0.733-0.273-0.949c-0.449,0.32-0.992,0.592-1.537,0.714l0.018,0.321c-0.097,0.11-0.561,0.11-1.133,0.061
	c-0.294-0.025-0.615-0.066-0.86-0.1c-1.04,0.11-2.304,0.199-3.508,0.207v11.584c0,0.067-0.078,0.128-0.208,0.179v1.268
	C33.313,58.431,34.223,58.296,34.781,58.229L34.781,58.229z M21.578,31.471c0.098-0.586,3.414-2.56,5.901-2.609
	c2.486-0.049,6.095,1.926,6.509,2.414c0.415,0.487-0.901,4.729-1.122,5.437c-0.219,0.707-1.292,3.633-0.536,4.316
	c0.756,0.682,6.899,0.414,7.216,0.487c0.317,0.073,0.635,0.414,0.756,0.658c0.097-0.001,0.365,0.194,0.414,0.78
	c0.019,0.222-0.166,0.536-0.476,0.853c0.184,0.253,0.383,0.635,0.453,1.195c0.122,0.975,0.292,7.534,0.292,8.753
	c0,1.219,0.049,2.633-0.317,3.267c-0.316,0.549-0.691,0.852-1.027,1.001l0.027,0.109c0,0-0.158,0.11-0.207,0.147
	c-0.049,0.036-0.025,0.17-0.025,0.17s-1.658,0.463-1.804,0.476c-0.147,0.012-2.317,0.354-2.488,0.354
	c-0.17,0-1.231,0.17-2.438,0.354c-0.09,0.015-0.182,0.029-0.272,0.041v5.663c3.847,0.186,6.819,1.408,6.819,2.889
	c0,1.609-3.509,2.913-7.839,2.913c-4.329,0-7.839-1.304-7.839-2.913c0-1.517,3.119-2.763,7.103-2.901v-5.579
	c-0.483-0.029-0.841-0.096-0.959-0.175l0.098-0.219c0,0-0.127-0.199-0.2-0.379c-0.607-0.386-0.976-0.966-1.097-1.658l-0.044-0.315
	c0,0-1.146-9.923-1.341-11.045c-0.147-0.846-0.475-1.428-0.679-1.768c-0.824-0.375-1.458-0.736-1.784-0.938l-0.097-0.195
	c0,0-0.317-0.122-0.317-0.22c0-0.097,0.317-0.17,0.317-0.17s0.292-0.293,0.391-0.366c0.097-0.073-0.049-0.268-0.098-0.561
	c-0.049-0.292-0.683-1.438-0.878-1.853c-0.194-0.415-0.707-2.024-0.829-2.462c-0.122-0.439-0.585-1.731-0.756-2.243
	C22.236,34.665,21.48,32.056,21.578,31.471L21.578,31.471z M73.307,46.173c-0.098,1-0.927,7.973-1,8.826
	c-0.073,0.853-0.054,2.61-0.794,3.394c-0.043,0.045-0.09,0.086-0.142,0.124c-0.02-0.017-0.041-0.035-0.063-0.055
	c-0.054,0.12-0.313,0.173-0.691,0.183v-1.382c0.129-0.05,0.207-0.111,0.207-0.179l0,0V45.398c0.186-0.022,0.364-0.048,0.532-0.079
	c0.847-0.156,1.665-0.406,2.401-0.685C73.546,45.032,73.367,45.561,73.307,46.173L73.307,46.173z M66.517,58.229
	c-1.317-0.159-4.267-0.707-4.621-0.841c0.001,0.007-0.038,0.056-0.072,0.098c-0.308-0.182-0.496-0.435-0.634-0.805
	c-0.157-0.42-0.171-3.218-0.171-3.218s0.317-7.582,0.341-8.217c0.018-0.466,0.154-0.733,0.273-0.949
	c0.448,0.32,0.992,0.592,1.537,0.714l-0.018,0.321c0.098,0.11,0.561,0.11,1.133,0.061c0.294-0.025,0.615-0.066,0.86-0.1
	c1.041,0.11,2.304,0.199,3.508,0.207v11.584c0,0.067,0.078,0.128,0.208,0.179v1.268C67.984,58.431,67.075,58.296,66.517,58.229
	L66.517,58.229z M79.72,31.471c-0.098-0.586-3.414-2.56-5.901-2.609c-2.486-0.049-6.095,1.926-6.509,2.414
	c-0.415,0.487,0.902,4.729,1.122,5.437c0.218,0.707,1.291,3.633,0.536,4.316c-0.756,0.682-6.9,0.414-7.216,0.487
	c-0.317,0.073-0.635,0.414-0.756,0.658c-0.097-0.001-0.366,0.194-0.415,0.78c-0.019,0.222,0.166,0.536,0.477,0.853
	c-0.184,0.253-0.383,0.635-0.453,1.195c-0.122,0.975-0.292,7.534-0.292,8.753c0,1.219-0.049,2.633,0.317,3.267
	c0.317,0.549,0.691,0.852,1.027,1.001l-0.027,0.109c0,0,0.158,0.11,0.207,0.147c0.048,0.036,0.024,0.17,0.024,0.17
	s1.659,0.463,1.804,0.476c0.147,0.012,2.316,0.354,2.487,0.354c0.17,0,1.231,0.17,2.438,0.354c0.09,0.015,0.181,0.029,0.272,0.041
	v5.663c-3.848,0.186-6.819,1.408-6.819,2.889c0.001,1.609,3.509,2.913,7.838,2.913c4.329,0,7.839-1.304,7.839-2.913
	c0-1.517-3.119-2.763-7.103-2.901v-5.579c0.483-0.029,0.841-0.096,0.959-0.175l-0.097-0.219c0,0,0.126-0.199,0.2-0.379
	c0.607-0.386,0.976-0.966,1.096-1.658l0.044-0.315c0,0,1.146-9.923,1.341-11.045c0.147-0.846,0.475-1.428,0.679-1.768
	c0.824-0.375,1.459-0.736,1.785-0.938l0.096-0.195c0,0,0.318-0.122,0.318-0.22c0-0.097-0.318-0.17-0.318-0.17
	s-0.292-0.293-0.39-0.366c-0.097-0.073,0.049-0.268,0.098-0.561c0.048-0.292,0.683-1.438,0.878-1.853
	c0.194-0.415,0.707-2.024,0.829-2.462c0.122-0.439,0.585-1.731,0.755-2.243C79.061,34.665,79.817,32.056,79.72,31.471L79.72,31.471z
	"/>
</svg>
