<?xml version="1.0" encoding="iso-8859-1"?>
<!-- Generator: Adobe Illustrator 19.0.0, SVG Export Plug-In . SVG Version: 6.00 Build 0)  -->
<svg version="1.1" id="Layer_1" xmlns="http://www.w3.org/2000/svg" xmlns:xlink="http://www.w3.org/1999/xlink" x="0px" y="0px"
	 viewBox="0 0 100 100" style="enable-background:new 0 0 100 100;" xml:space="preserve">
<path id="XMLID_884_" style="fill-rule:evenodd;clip-rule:evenodd;fill:#231F20;" d="M74.539,54.435
	c0.776-0.005,1.508,0.006,2.195,0.036c0.589,0.026,1.146,0.065,1.666,0.117c0-0.026,0-0.051-0.001-0.077
	c-0.002-0.117-0.013-0.234-0.031-0.351c-0.02-0.128-0.048-0.254-0.084-0.377l0,0c-0.038-0.13-0.083-0.259-0.136-0.383
	c-0.08-0.19-0.182-0.385-0.303-0.583v-0.001c-0.12-0.195-0.259-0.39-0.418-0.585c-0.158-0.194-0.334-0.387-0.529-0.578
	c-0.192-0.189-0.404-0.376-0.633-0.561c-0.38-0.305-0.827-0.583-1.34-0.834c-0.519-0.255-1.1-0.483-1.737-0.686
	c-0.642-0.204-1.347-0.385-2.109-0.543c-0.763-0.158-1.579-0.294-2.443-0.41c-0.855-0.113-1.767-0.208-2.73-0.285
	c-0.967-0.077-1.967-0.136-2.997-0.178c-1.041-0.043-2.116-0.07-3.221-0.083c-1.012-0.012-2.054-0.013-3.12-0.004
	c0.08,0.524,0.152,1.062,0.215,1.606c0.078,0.684,0.145,1.385,0.2,2.095c0.056,0.729,0.1,1.479,0.134,2.239
	c0.029,0.669,0.048,1.34,0.06,2.008c1.016-0.139,2.036-0.275,3.059-0.405c1.119-0.142,2.194-0.272,3.217-0.389
	c1.036-0.117,2.06-0.225,3.071-0.322c1.01-0.097,1.975-0.179,2.888-0.246c0.915-0.066,1.807-0.12,2.672-0.158
	C72.937,54.463,73.756,54.441,74.539,54.435L74.539,54.435z M63.53,56.079c-1.07,0.121-2.142,0.251-3.216,0.387
	c-1,0.128-2.045,0.267-3.128,0.416c0.001,0.167,0.001,0.334,0.001,0.5c-0.001,0.244-0.002,0.484-0.006,0.721
	c-0.003,0.242-0.007,0.478-0.012,0.71c-0.004,0.162-0.008,0.32-0.013,0.474c0.505,0.099,1.021,0.196,1.542,0.281
	c0.61,0.1,1.245,0.191,1.906,0.263c0.667,0.074,1.359,0.128,2.076,0.157c0.719,0.028,1.467,0.031,2.245-0.001
	c0.789-0.032,1.61-0.099,2.464-0.211c0.853-0.111,1.741-0.266,2.663-0.473c0.923-0.207,1.881-0.467,2.875-0.787
	c0.996-0.321,2.028-0.703,3.097-1.153c0.197-0.083,0.388-0.174,0.57-0.274c0.184-0.1,0.35-0.201,0.496-0.304
	c0.149-0.104,0.288-0.216,0.415-0.333c0.126-0.116,0.238-0.235,0.336-0.358c0.061-0.075,0.118-0.154,0.17-0.234
	c0.05-0.078,0.096-0.16,0.138-0.243c0.032-0.065,0.06-0.126,0.084-0.187c-0.493-0.048-1.014-0.083-1.562-0.107
	c-0.677-0.029-1.395-0.041-2.149-0.036c-0.759,0.006-1.565,0.028-2.412,0.065c-0.833,0.037-1.714,0.091-2.638,0.158
	c-0.943,0.069-1.904,0.15-2.88,0.244C65.62,55.849,64.596,55.958,63.53,56.079L63.53,56.079z M51.781,44.279
	c0.086-0.609,0.191-1.123,0.315-1.542c0.061-0.207,0.127-0.392,0.198-0.555c-1.554,0.127-3.015,0.222-4.39,0.289
	c-1.504,0.074-2.897,0.112-4.191,0.117c-1.302,0.006-2.493-0.021-3.587-0.077c-1.103-0.057-2.106-0.141-3.023-0.251
	c-0.672-0.082-1.361-0.182-2.055-0.311c-0.693-0.129-1.385-0.285-2.063-0.477c-0.68-0.192-1.352-0.422-2.004-0.697
	c-0.652-0.275-1.282-0.595-1.878-0.969v-0.001l-0.006-0.003c-0.304-0.201-0.581-0.393-0.841-0.581
	c-0.257-0.187-0.484-0.364-0.684-0.535c-0.207-0.177-0.391-0.352-0.557-0.531c-0.166-0.179-0.317-0.364-0.457-0.564
	c-0.135-0.193-0.256-0.393-0.368-0.606c-0.113-0.215-0.217-0.444-0.319-0.692c-0.098-0.241-0.195-0.506-0.294-0.798
	c-0.077-0.224-0.156-0.468-0.239-0.734c-0.288,0.039-0.557,0.082-0.808,0.127c-0.309,0.057-0.588,0.119-0.838,0.188
	c-0.244,0.068-0.461,0.144-0.651,0.23c-0.181,0.082-0.336,0.173-0.465,0.275c-0.376,0.296-0.594,0.553-0.725,0.76
	c-0.126,0.2-0.172,0.358-0.204,0.465l-0.023,0.082c-0.011,0.032-0.023,0.062-0.037,0.09c-0.092,0.185-0.174,0.384-0.246,0.595
	c-0.073,0.21-0.141,0.447-0.206,0.705h-0.001c-0.063,0.249-0.122,0.517-0.179,0.8c-0.058,0.289-0.111,0.582-0.162,0.88
	c-0.054,0.31-0.103,0.625-0.146,0.941c-0.044,0.325-0.085,0.663-0.122,1.011c-0.036,0.34-0.069,0.699-0.099,1.075
	c-0.03,0.381-0.055,0.758-0.075,1.129c-0.116,2.143-0.106,4.521,0.039,6.954c0.138,2.335,0.4,4.721,0.789,6.999
	c0.357,2.093,0.822,4.091,1.396,5.871c0.512,1.588,1.113,3.005,1.803,4.16l24.227,1.999l0.038,0.006l0.008,0.002l0.033,0.011
	c0.163,0.061,0.33,0.123,0.5,0.183c0.179,0.063,0.346,0.12,0.497,0.168c0.16,0.051,0.325,0.101,0.494,0.148
	c0.161,0.045,0.325,0.087,0.493,0.126c0.161,0.037,0.322,0.07,0.486,0.099c0.165,0.028,0.326,0.052,0.483,0.069
	c0.162,0.018,0.322,0.03,0.479,0.036c0.117,0.004,0.234,0.005,0.351,0.002c-0.172-2.311-0.323-4.495-0.452-6.553
	c-0.132-2.114-0.242-4.092-0.327-5.933c-0.084-1.827-0.144-3.51-0.179-5.049c-0.035-1.534-0.045-2.919-0.03-4.155
	c0.013-1.04,0.044-1.971,0.094-2.793C51.623,45.632,51.692,44.903,51.781,44.279L51.781,44.279z M52.54,58.419
	c0.083,1.81,0.192,3.78,0.326,5.912c0.127,2.026,0.278,4.202,0.451,6.526l0.088-0.016c0.112-0.02,0.243-0.047,0.386-0.078
	c0.298-0.064,0.572-0.13,0.858-0.2l0.015-0.003l0.02-0.005l0.053-0.013l0.365-0.088c0.158-0.378,0.301-0.757,0.428-1.137
	c0.141-0.419,0.266-0.846,0.375-1.279c0.109-0.431,0.201-0.867,0.279-1.308c0.078-0.446,0.139-0.89,0.186-1.332
	c0.048-0.457,0.08-0.917,0.099-1.38c0.019-0.468,0.024-0.938,0.017-1.411c-0.008-0.469-0.028-0.951-0.061-1.445
	c-0.032-0.488-0.076-0.982-0.13-1.48l-0.001-0.011l-0.001-0.002v-0.011v-0.018l-0.002-0.007V59.63l0.002-0.009
	c0.051-1.403,0.057-2.935,0.013-4.491c-0.041-1.467-0.128-2.958-0.266-4.384c-0.125-1.303-0.293-2.554-0.507-3.688
	c-0.196-1.041-0.432-1.979-0.709-2.763c-0.061-0.171-0.124-0.335-0.188-0.491c-0.064-0.154-0.128-0.297-0.195-0.431
	c-0.065-0.133-0.132-0.256-0.2-0.369c-0.066-0.111-0.134-0.213-0.204-0.307c-0.069-0.093-0.138-0.182-0.208-0.263
	c-0.065-0.076-0.133-0.145-0.2-0.203c-0.057-0.048-0.113-0.086-0.168-0.11V42.12c-0.043-0.019-0.086-0.028-0.127-0.025
	c-0.088,0.005-0.185,0.122-0.289,0.347c-0.139,0.299-0.258,0.75-0.358,1.346c-0.104,0.618-0.185,1.386-0.244,2.298
	c-0.06,0.923-0.096,1.985-0.112,3.179c-0.015,1.225-0.005,2.601,0.03,4.126C52.395,54.912,52.455,56.588,52.54,58.419L52.54,58.419z
	 M26.181,68.638l-1.247-0.1l0.041,1.45l1.272,0.312l1.266-0.257l-0.001-1.289L26.181,68.638L26.181,68.638z M52.953,71.379
	l-1.11-0.049l0.051,1.494l1.014,0.234l1.446-0.325l0.074-1.662L52.953,71.379L52.953,71.379z M75.07,67.847v1.22l0.887,0.205
	l1.294-0.258l0.019-1.445l-1.322,0.168L75.07,67.847L75.07,67.847z M60.558,60.685c-0.669-0.073-1.311-0.163-1.93-0.263
	c-0.497-0.081-0.971-0.167-1.426-0.255c0.035,0.369,0.063,0.734,0.085,1.095c0.029,0.473,0.047,0.946,0.053,1.422
	c0.006,0.478,0,0.949-0.019,1.412c-0.02,0.469-0.053,0.932-0.101,1.389c-0.048,0.458-0.11,0.908-0.186,1.35
	c-0.077,0.444-0.17,0.887-0.279,1.328c-0.107,0.432-0.23,0.86-0.368,1.284c-0.091,0.276-0.188,0.552-0.294,0.828
	c0.662-0.109,1.341-0.22,2.042-0.333c0.812-0.131,1.645-0.264,2.502-0.398c0.95-0.149,1.798-0.28,2.523-0.39
	c0.806-0.122,1.642-0.246,2.506-0.371c0.822-0.119,1.668-0.238,2.54-0.358c0.824-0.113,1.668-0.226,2.536-0.338
	c0.89-0.115,1.731-0.22,2.515-0.313c0.755-0.091,1.529-0.179,2.321-0.267l0.035-0.148c0.023-0.096,0.048-0.204,0.074-0.326h0.001
	c0.023-0.106,0.047-0.217,0.071-0.332c0.019-0.091,0.04-0.202,0.066-0.335c0.021-0.108,0.043-0.227,0.066-0.359
	c0.027-0.148,0.047-0.267,0.061-0.352v-0.002c0.016-0.1,0.035-0.217,0.054-0.352c0.021-0.141,0.037-0.258,0.049-0.349
	c0.078-0.599,0.133-1.195,0.162-1.79c0.029-0.589,0.034-1.174,0.013-1.756c-0.02-0.564-0.065-1.132-0.136-1.702
	c-0.056-0.456-0.128-0.908-0.217-1.357c-0.963,0.392-1.9,0.73-2.811,1.02c-1.001,0.318-1.965,0.577-2.895,0.784
	c-0.935,0.208-1.836,0.364-2.705,0.476c-0.869,0.112-1.704,0.181-2.508,0.213c-0.792,0.032-1.554,0.031-2.287,0.001
	C61.936,60.812,61.232,60.758,60.558,60.685L60.558,60.685z M77.632,57.447c-0.17,0.122-0.351,0.237-0.541,0.344
	c-0.13,0.073-0.267,0.144-0.41,0.212c0.106,0.515,0.191,1.033,0.257,1.552h-0.001c0.075,0.596,0.123,1.194,0.145,1.793
	c0.023,0.612,0.019,1.225-0.011,1.84c-0.03,0.621-0.086,1.246-0.169,1.873c-0.019,0.145-0.036,0.268-0.05,0.364
	c-0.014,0.097-0.033,0.22-0.057,0.368c-0.024,0.153-0.044,0.272-0.061,0.365c-0.019,0.111-0.042,0.234-0.068,0.368
	c-0.016,0.085-0.038,0.193-0.065,0.321c-0.028,0.139-0.052,0.248-0.067,0.321c-0.015,0.068-0.032,0.144-0.052,0.229l0.106-0.015
	V67.38l0.02-0.002h0.001c0.121-0.017,0.249-0.035,0.418-0.057c0.143-0.019,0.285-0.035,0.423-0.049
	c0.144-0.014,0.288-0.026,0.43-0.033c0.14-0.007,0.284-0.011,0.433-0.01v-0.001l0.042-0.001c0.012,0,0.025-0.002,0.04-0.003
	c0.011-0.001,0.023-0.002,0.036-0.005c0.012-0.002,0.024-0.005,0.036-0.007h0.001c0.01-0.003,0.021-0.005,0.033-0.009l0,0
	c0.015-0.005,0.027-0.008,0.032-0.01l0.002-0.001l-0.001-0.001c0.015-0.005,0.025-0.009,0.031-0.011h0.001l0.029-0.015
	c0.058-0.031,0.112-0.074,0.162-0.132c0.053-0.061,0.103-0.14,0.145-0.234c0.045-0.099,0.084-0.216,0.116-0.355
	c0.031-0.136,0.055-0.291,0.07-0.469l0.002-0.026v-0.001l0.001-0.012l0.002-0.016l0.003-0.037l0.003-0.04L79.1,65.84l0.008-0.095
	l0.001-0.015l0.002-0.023c0.032-0.372,0.062-0.734,0.09-1.08c0.036-0.457,0.07-0.898,0.102-1.322
	c0.034-0.453,0.065-0.899,0.095-1.338c0.031-0.457,0.059-0.903,0.085-1.336c0.026-0.435,0.049-0.854,0.07-1.255
	c0.022-0.42,0.042-0.827,0.059-1.218c0.018-0.404,0.033-0.796,0.047-1.175c0.014-0.391,0.026-0.77,0.035-1.135
	c0.05-1.933,0.048-3.702-0.006-5.296c-0.054-1.57-0.161-2.968-0.322-4.184c-0.155-1.18-0.362-2.185-0.621-3.007l0,0
	c-0.21-0.666-0.453-1.205-0.729-1.61c-0.011,0.015-0.023,0.029-0.033,0.044c-0.082,0.112-0.159,0.262-0.233,0.447
	c-0.079,0.2-0.154,0.44-0.224,0.721c-0.071,0.288-0.137,0.614-0.196,0.977c-0.065,0.398-0.121,0.836-0.17,1.314
	c-0.048,0.478-0.09,1.001-0.124,1.567c-0.035,0.57-0.061,1.172-0.08,1.802c-0.018,0.605-0.029,1.241-0.035,1.906
	c0.211,0.174,0.409,0.353,0.592,0.534c0.141,0.14,0.274,0.28,0.398,0.419l0.004-0.004l0.186,0.229
	c0.178,0.22,0.338,0.445,0.478,0.674c0.14,0.227,0.258,0.458,0.355,0.689c0.066,0.157,0.122,0.313,0.166,0.465
	c0.046,0.156,0.082,0.311,0.107,0.466c0.025,0.153,0.04,0.309,0.044,0.463c0.005,0.155-0.001,0.306-0.017,0.455
	c-0.017,0.153-0.045,0.305-0.085,0.456c-0.04,0.15-0.09,0.298-0.15,0.441c-0.061,0.143-0.133,0.283-0.214,0.418
	c-0.081,0.133-0.173,0.265-0.277,0.395c-0.12,0.148-0.253,0.292-0.4,0.429C77.965,57.192,77.806,57.322,77.632,57.447L77.632,57.447
	z M73.263,48.705c0.646,0.197,1.239,0.418,1.774,0.663c0.374,0.172,0.721,0.355,1.039,0.551c0.007-0.516,0.019-1.011,0.033-1.482
	c0.02-0.629,0.047-1.215,0.08-1.755c0.035-0.558,0.077-1.08,0.127-1.564c0.049-0.479,0.107-0.919,0.171-1.317
	c0.052-0.316,0.107-0.603,0.168-0.864c0.061-0.261,0.128-0.502,0.202-0.721c0.064-0.188,0.132-0.359,0.204-0.51
	c-1.117,0.105-2.224,0.196-3.317,0.268c-1.264,0.084-2.526,0.145-3.784,0.176c-1.263,0.031-2.513,0.031-3.748-0.007
	c-1.239-0.038-2.46-0.114-3.663-0.235c-1.214-0.122-2.409-0.29-3.582-0.51c-1.175-0.221-2.329-0.494-3.46-0.827
	c-1.119-0.33-2.215-0.718-3.284-1.172c-0.834-0.354-1.651-0.747-2.452-1.184l0.04,0.092c0.059,0.135,0.126,0.285,0.202,0.454
	c0.061,0.136,0.133,0.292,0.215,0.468c0.095,0.205,0.185,0.394,0.267,0.564c0.102,0.212,0.196,0.403,0.283,0.575
	c0.086,0.171,0.185,0.365,0.298,0.583c0.081,0.155,0.159,0.305,0.235,0.448c0.201-0.017,0.386-0.035,0.573-0.053h0.001l0.014-0.002
	l0,0l0.006-0.001c0.452-0.044,0.914-0.09,1.392-0.105c0.165-0.005,0.323,0.032,0.472,0.098c0.138,0.061,0.27,0.148,0.392,0.247
	c0.116,0.096,0.222,0.2,0.316,0.304c0.091,0.101,0.174,0.205,0.245,0.3c0.085,0.114,0.167,0.239,0.247,0.372
	c0.081,0.135,0.158,0.278,0.234,0.428c0.076,0.154,0.149,0.315,0.219,0.483c0.072,0.171,0.141,0.351,0.207,0.539
	c0.081,0.229,0.16,0.476,0.238,0.741c0.078,0.264,0.151,0.54,0.221,0.824c0.069,0.287,0.137,0.587,0.2,0.896
	c0.052,0.25,0.099,0.5,0.144,0.749c1.108-0.01,2.189-0.01,3.239,0.002c1.129,0.014,2.218,0.04,3.263,0.082
	c1.064,0.043,2.08,0.103,3.04,0.179c0.965,0.077,1.891,0.173,2.778,0.291c0.847,0.113,1.649,0.245,2.402,0.399
	C71.905,48.329,72.611,48.505,73.263,48.705L73.263,48.705z M25.778,33.526c0.084,0.194,0.169,0.394,0.255,0.6l0.006,0.014
	l0.001,0.003l0.003,0.009l0.051,0.165l0.001,0.002c0.102,0.327,0.198,0.628,0.293,0.909c0.093,0.271,0.183,0.517,0.276,0.746
	c0.093,0.227,0.186,0.43,0.281,0.613c0.097,0.184,0.2,0.355,0.312,0.515h0.001c0.104,0.149,0.217,0.289,0.338,0.423
	c0.121,0.134,0.259,0.269,0.416,0.41c0.069,0.061,0.141,0.123,0.217,0.185l-0.019-0.04c-0.162-0.335-0.324-0.665-0.483-0.986
	c-0.179-0.359-0.347-0.693-0.503-0.999c-0.166-0.322-0.332-0.642-0.501-0.958C26.426,34.584,26.104,34.052,25.778,33.526
	L25.778,33.526z M24.928,30.386c0.051,0.095,0.107,0.202,0.166,0.32c0.045,0.089,0.103,0.205,0.17,0.342
	c0.18,0.256,0.36,0.526,0.542,0.809c0.18,0.281,0.365,0.58,0.553,0.896c0.191,0.321,0.377,0.642,0.557,0.963
	c0.175,0.313,0.362,0.655,0.557,1.022c0.183,0.344,0.369,0.701,0.557,1.067c0.196,0.383,0.381,0.752,0.557,1.108
	c0.187,0.378,0.372,0.759,0.555,1.14c0.174,0.36,0.348,0.726,0.523,1.097c0.397,0.237,0.831,0.466,1.312,0.684
	c0.509,0.23,1.064,0.446,1.676,0.641c0.617,0.197,1.297,0.376,2.053,0.534c0.752,0.157,1.581,0.292,2.498,0.403
	c0.822,0.099,1.707,0.177,2.665,0.231c0.969,0.055,2.008,0.086,3.126,0.092c1.117,0.006,2.32-0.015,3.619-0.062
	c1.17-0.044,2.424-0.111,3.768-0.204l-0.11-0.212c-0.087-0.167-0.182-0.354-0.284-0.558c-0.107-0.214-0.199-0.402-0.278-0.563
	c-0.099-0.205-0.185-0.386-0.259-0.545c-0.07-0.151-0.141-0.313-0.211-0.481c-0.061-0.146-0.129-0.317-0.197-0.487
	c-0.084-0.21-0.168-0.42-0.258-0.631c-0.087-0.204-0.179-0.402-0.275-0.591l-0.008-0.015l-0.001-0.003l-0.006-0.016
	c-0.026-0.071-0.055-0.148-0.086-0.229c-0.044-0.118-0.075-0.196-0.091-0.238h-0.001c-0.047-0.118-0.081-0.201-0.1-0.249
	c-0.037-0.091-0.073-0.177-0.107-0.257c-0.028-0.067-0.065-0.153-0.11-0.255c-0.043-0.098-0.082-0.187-0.117-0.267l-0.126-0.278
	v-0.001c-0.046-0.101-0.09-0.197-0.132-0.289c-0.216-0.464-0.444-0.936-0.68-1.408c-0.247-0.494-0.517-1.016-0.804-1.556
	c-0.297-0.562-0.601-1.119-0.903-1.662c-0.317-0.57-0.644-1.142-0.97-1.704c-0.033-0.057-0.06-0.116-0.082-0.176v-0.002
	c-0.023-0.062-0.039-0.12-0.05-0.172v-0.002c-0.011-0.05-0.02-0.105-0.028-0.162c-0.007-0.052-0.013-0.102-0.019-0.149
	c-0.005-0.051-0.011-0.1-0.016-0.132l-0.002-0.009c-0.596-0.032-1.18-0.061-1.752-0.086c-0.621-0.027-1.231-0.051-1.832-0.072
	c-0.618-0.022-1.221-0.041-1.813-0.06c-0.602-0.018-1.201-0.036-1.797-0.053c-1.243-0.036-2.475-0.071-3.687-0.116
	c-1.228-0.044-2.444-0.097-3.646-0.167c-1.209-0.071-2.417-0.16-3.631-0.276c-1.127-0.108-2.248-0.239-3.362-0.398
	c0.006,0.017,0.013,0.034,0.019,0.049c0.048,0.118,0.115,0.255,0.196,0.406h0.002c0.089,0.164,0.191,0.336,0.301,0.511
	c0.121,0.191,0.254,0.389,0.394,0.59c0.139,0.199,0.288,0.403,0.443,0.608c0.061,0.043,0.118,0.088,0.172,0.134
	c0.065,0.057,0.128,0.115,0.189,0.179c0.057,0.06,0.115,0.127,0.175,0.202c0.058,0.074,0.113,0.15,0.166,0.228
	c0.056,0.082,0.107,0.166,0.159,0.251C24.819,30.188,24.872,30.283,24.928,30.386L24.928,30.386z"/>
</svg>
