<?xml version="1.0" encoding="iso-8859-1"?>
<!-- Generator: Adobe Illustrator 19.0.0, SVG Export Plug-In . SVG Version: 6.00 Build 0)  -->
<svg version="1.1" id="Layer_1" xmlns="http://www.w3.org/2000/svg" xmlns:xlink="http://www.w3.org/1999/xlink" x="0px" y="0px"
	 viewBox="0 0 100 100" style="enable-background:new 0 0 100 100;" xml:space="preserve">
<g id="XMLID_140_">
	<path id="XMLID_146_" style="fill:#231F20;" d="M27,77.508l12-4.67V28.559l-12-6.055V77.508z M28,47l2,0.662v4.839l-2,0.51V47z"/>
	<path id="XMLID_166_" style="fill:#231F20;" d="M57,25.477v8.381C59,34.025,60.641,36,61.074,38h-8.266
		C53.249,36,55,33.953,57,33.846v-8.28l-17,2.993v44.278l34,4.67V22.504L57,25.477z M54.271,44.836
		c-0.061,0.319-0.209,0.558-0.329,0.535c-0.12-0.023-0.168-0.3-0.107-0.619c0.061-0.319,0.209-0.558,0.329-0.535
		C54.285,44.24,54.332,44.517,54.271,44.836z M54.655,42.844c-0.061,0.319-0.209,0.558-0.329,0.535
		c-0.12-0.023-0.168-0.3-0.107-0.619c0.061-0.319,0.209-0.558,0.329-0.535C54.669,42.248,54.716,42.525,54.655,42.844z
		 M55.039,40.852c-0.061,0.319-0.209,0.558-0.329,0.535c-0.12-0.023-0.168-0.3-0.107-0.619c0.061-0.319,0.209-0.558,0.329-0.535
		C55.053,40.256,55.1,40.534,55.039,40.852z M56.841,48.641c-0.123,0-0.222-0.263-0.222-0.588c0-0.325,0.099-0.588,0.222-0.588
		c0.123,0,0.222,0.263,0.222,0.588C57.063,48.377,56.963,48.641,56.841,48.641z M56.841,45.96c-0.123,0-0.222-0.263-0.222-0.588
		c0-0.325,0.099-0.588,0.222-0.588c0.123,0,0.222,0.263,0.222,0.588C57.063,45.697,56.963,45.96,56.841,45.96z M56.841,43.39
		c-0.123,0-0.222-0.263-0.222-0.588c0-0.325,0.099-0.588,0.222-0.588c0.123,0,0.222,0.263,0.222,0.588
		C57.063,43.127,56.963,43.39,56.841,43.39z M56.841,41.042c-0.123,0-0.222-0.263-0.222-0.588c0-0.325,0.099-0.588,0.222-0.588
		c0.123,0,0.222,0.263,0.222,0.588C57.063,40.779,56.963,41.042,56.841,41.042z M58.49,40.852c-0.061-0.319-0.014-0.596,0.107-0.619
		c0.12-0.023,0.268,0.216,0.329,0.535s0.014,0.596-0.107,0.619C58.698,41.41,58.551,41.171,58.49,40.852z M58.873,42.844
		c-0.061-0.319-0.014-0.596,0.107-0.619c0.12-0.023,0.268,0.216,0.329,0.535c0.061,0.319,0.014,0.596-0.107,0.619
		C59.082,43.402,58.935,43.163,58.873,42.844z M59.587,45.371c-0.12,0.023-0.268-0.216-0.329-0.535
		c-0.061-0.319-0.014-0.596,0.107-0.619c0.12-0.023,0.268,0.216,0.329,0.535C59.755,45.071,59.707,45.348,59.587,45.371z"/>
</g>
</svg>
