<?xml version="1.0" encoding="iso-8859-1"?>
<!-- Generator: Adobe Illustrator 19.0.0, SVG Export Plug-In . SVG Version: 6.00 Build 0)  -->
<svg version="1.1" id="Layer_1" xmlns="http://www.w3.org/2000/svg" xmlns:xlink="http://www.w3.org/1999/xlink" x="0px" y="0px"
	 viewBox="0 0 100 100" style="enable-background:new 0 0 100 100;" xml:space="preserve">
<path id="XMLID_1383_" style="fill-rule:evenodd;clip-rule:evenodd;fill:#231F20;" d="M22.877,27.156h55.544v45.688H22.877V27.156
	L22.877,27.156z M24.403,67.866h14.108V71.2H24.403V67.866L24.403,67.866z M24.403,63.914h14.108v3.335H24.403V63.914L24.403,63.914
	z M24.403,59.963h14.108v3.334H24.403V59.963L24.403,59.963z M24.403,56.012h14.108v3.334H24.403V56.012L24.403,56.012z
	 M24.403,28.722h14.108v26.302H24.403V28.722L24.403,28.722z M53.445,36.102c0.135-0.215,0.239-0.346,0.454-0.503
	c0.199-0.145,0.372-0.21,0.619-0.253c0.268-0.04,0.483-0.028,0.749,0.02c0.191,0.037,0.349,0.083,0.529,0.152
	c0.134,0.066,0.246,0.144,0.36,0.237c0.36,0.299,0.545,0.613,0.706,1.034c0.217,0.614,0.229,1.137,0.163,1.777
	c-0.114,0.941-0.393,1.692-0.804,2.556c-0.761,1.449-3.278,3.728-4.484,5.243c-0.726,0.969-1.209,1.777-1.583,2.915
	c-0.075,0.246-0.133,0.481-0.181,0.733c-0.269,1.716,0.032,2.948,0.851,4.489c1.132,1.921,2.592,3.603,3.405,5.649
	c0.311,0.681,0.846,1.522,1.086,2.171c-0.451-1.361-0.7-1.832-0.843-2.253c-0.728-2.122-2.104-3.814-3.17-5.801
	c-0.115-0.232-0.217-0.458-0.307-0.677c0.276-0.886,0.594-2.455,1.132-3.51c0.17-0.296,0.334-0.536,0.578-0.786
	c0.192-0.194,0.366-0.331,0.63-0.434c0.234-0.082,0.41-0.093,0.656-0.054c0.33,0.072,0.579,0.204,0.858,0.38
	c0.179,0.122,0.3,0.233,0.422,0.405c0.097,0.143,0.148,0.261,0.187,0.425c0.02,0.091,0.029,0.171,0.031,0.264
	c-0.008,0.217-0.066,0.397-0.167,0.592c-0.102,0.18-0.276,0.42-0.507,0.465c-0.02,0.003-0.037,0.005-0.058,0.001
	c-0.015-0.001-0.051-0.005-0.061,0.004c-0.075,0.141-0.155,0.233-0.22,0.369c-0.139,0.372,0.025,0.641,0.389,0.818
	c0.178,0.069,0.355,0.102,0.548,0.086c0.103,0.004,0.219-0.017,0.317-0.04c0.65-0.16,1.017-0.603,1.12-1.211
	c0.003-0.041,0.004-0.08,0.003-0.121c0.067-0.602,0.04-0.964-0.173-1.556c-0.128-0.296-0.266-0.507-0.488-0.752
	c-0.248-0.254-0.475-0.416-0.797-0.584c-0.444-0.222-0.814-0.354-1.321-0.396c-0.434-0.021-0.748,0.04-1.134,0.227
	c-0.358,0.191-0.584,0.398-0.835,0.701c-0.086,0.108-0.163,0.214-0.238,0.329c-0.136,0.213-0.242,0.414-0.345,0.642
	c-0.452,1.207-0.663,2.105-0.732,3.179c-0.297-0.928-0.353-1.817-0.138-2.916c0.323-1.325,0.885-2.233,1.746-3.316
	c1.455-1.738,3.711-3.501,4.796-5.245c0.505-0.956,0.841-1.774,1.045-2.825c0.119-0.74,0.134-1.329-0.016-2.065
	c-0.006-0.027-0.049-0.21-0.049-0.21c-0.184-0.661-0.441-1.136-0.919-1.662c-0.446-0.448-0.867-0.716-1.486-0.927
	c-0.6-0.177-1.085-0.21-1.702-0.088c-0.641,0.157-1.071,0.405-1.5,0.873c-0.285,0.333-0.441,0.62-0.581,1.021
	c-0.078,0.244-0.113,0.478-0.132,0.733c-0.016,0.456,0.249,2.337,0.886,2.18c0.241-0.247,0.311-1.523,0.553-2.12
	C53.337,36.337,53.381,36.225,53.445,36.102L53.445,36.102z M50.43,64.881c-0.158-0.127-0.319-0.241-0.479-0.375
	c-0.158-0.128-0.312-0.264-0.467-0.394l-0.292-0.226c-0.127-0.129-0.225-0.302-0.306-0.458c-0.12-0.203-0.145-0.417-0.145-0.644
	c0.007-0.293,0.063-0.527,0.176-0.801c0.114-0.253,0.239-0.444,0.45-0.637c0.184-0.155,0.347-0.24,0.595-0.273
	c1.033-0.073,1.866,0.223,2.749,0.698c0.586,0.337,1.023,0.672,1.495,1.139c0.28,0.286,0.502,0.552,0.725,0.879
	c0.87,1.428,1.174,2.631,1.019,4.25c-0.053,0.39-0.146,1.134,0.548,1.634c-0.454-0.449-0.315-1.209-0.249-1.611
	c0.348-1.697,0.068-3.051-0.778-4.593c-0.612-1-1.324-1.683-2.331-2.349c-1.042-0.635-1.98-0.991-3.242-1
	c-0.495,0.027-0.842,0.16-1.236,0.436c-0.368,0.278-0.594,0.551-0.819,0.937c-0.214,0.389-0.33,0.722-0.401,1.154
	c-0.018,0.127-0.029,0.247-0.032,0.375c-0.011,0.302,0.021,0.542,0.105,0.836c0.163,0.502,0.341,0.874,0.68,1.296
	c0.328,0.371,0.626,0.592,1.082,0.812c0.282,0.131,0.524,0.211,0.821,0.299c0.406,0.105,1.657,0.27,1.729-0.285
	C51.672,65.5,50.866,65.158,50.43,64.881L50.43,64.881z M40.654,28.116h19.227v43.836H40.654V28.116L40.654,28.116z"/>
</svg>
