<?xml version="1.0" encoding="iso-8859-1"?>
<!-- Generator: Adobe Illustrator 19.0.0, SVG Export Plug-In . SVG Version: 6.00 Build 0)  -->
<svg version="1.1" id="Layer_1" xmlns="http://www.w3.org/2000/svg" xmlns:xlink="http://www.w3.org/1999/xlink" x="0px" y="0px"
	 viewBox="0 0 100 100" style="enable-background:new 0 0 100 100;" xml:space="preserve">
<path id="XMLID_13_" style="fill-rule:evenodd;clip-rule:evenodd;fill:#231F20;" d="M26.354,29.766h1.273v1.779l13.186,3.013v-1.608
	h1.546v3.238l13.086-1.989c-0.196-0.064-0.378-0.129-0.533-0.197v0.001c-0.115-0.049-0.199-0.141-0.242-0.249
	c-0.043-0.108-0.045-0.232,0.004-0.346c0.021-0.049,0.051-0.093,0.087-0.131l-0.016-0.057l0.213-0.065
	c0.791-0.243,1.4-0.559,2.009-0.874l0.001,0c0.565-0.292,1.131-0.585,1.851-0.833v-5.043h1.182v1.44l13.549,1.874v-1.132h1.394
	v36.648H73.55v-5.969l-31.192,6.831v7.504h-1.546v-8.617l-13.186-3.664v7.552h-1.273V29.766L26.354,29.766z M55.023,51.284
	c0.811-0.249,1.429-0.569,2.047-0.889c0.636-0.328,1.271-0.657,2.122-0.919c0.377-0.116,0.945-0.157,1.512-0.197
	c0.543-0.039,1.087-0.078,1.412-0.178c0.028-0.008,0.056-0.011,0.083-0.009l0,0c0.734,0.057,1.271,0.223,1.817,0.393
	c0.452,0.14,0.911,0.282,1.492,0.359c1.297,0.172,2.58,0.553,3.771,1.122c1.163,0.557,2.239,1.293,3.156,2.191
	c0.09,0.088,0.091,0.231,0.003,0.321c-0.025,0.026-0.055,0.044-0.087,0.055c-0.921,0.334-1.652,0.509-2.4,0.688
	c-0.801,0.192-1.623,0.389-2.739,0.802c-0.255,0.094-0.577,0.29-0.918,0.497c-0.392,0.238-0.808,0.492-1.214,0.647
	c-0.058,0.022-0.121,0.019-0.173-0.005l-0.001,0.001c-0.379-0.172-0.687-0.394-0.989-0.611c-0.249-0.179-0.494-0.355-0.767-0.49
	c-1.23-0.605-2.461-1.129-3.763-1.682c-0.691-0.294-1.401-0.596-2.114-0.91c-0.26-0.115-0.692-0.245-1.124-0.376
	c-0.43-0.13-0.86-0.26-1.152-0.387c-0.115-0.049-0.168-0.183-0.118-0.297C54.91,51.348,54.963,51.303,55.023,51.284L55.023,51.284
	L55.023,51.284z M54.957,51.067c0.791-0.243,1.4-0.559,2.009-0.874h0.001c0.565-0.293,1.131-0.585,1.851-0.834v-4.351l-16.46,3.264
	v5.818l12.463-2.226c-0.069-0.051-0.122-0.121-0.152-0.199c-0.043-0.108-0.045-0.232,0.004-0.346
	c0.021-0.049,0.051-0.093,0.087-0.131l-0.016-0.057L54.957,51.067L54.957,51.067z M60.001,49.108
	c0.222-0.022,0.455-0.039,0.689-0.056c0.266-0.019,0.532-0.038,0.766-0.063v-2.669l-1.455-0.228V49.108L60.001,49.108z
	 M62.183,48.863l0.034,0.003c0.757,0.059,1.306,0.228,1.863,0.401l0,0l0.001,0l0.003,0.001c0.123,0.038,0.248,0.077,0.373,0.114
	V46.79l-2.273-0.357V48.863L62.183,48.863z M65.184,49.561c0.113,0.022,0.231,0.041,0.354,0.058c0.649,0.086,1.291,0.223,1.92,0.407
	v-2.765l-2.274-0.357V49.561L65.184,49.561z M68.185,50.264c0.404,0.146,0.803,0.312,1.192,0.498
	c0.566,0.27,1.111,0.582,1.627,0.933v-3.879l-2.819-0.442V50.264L68.185,50.264z M71.732,52.233c0.3,0.239,0.589,0.495,0.864,0.763
	c0.089,0.088,0.134,0.204,0.135,0.32c0,0.116-0.043,0.233-0.13,0.322c-0.026,0.026-0.052,0.048-0.08,0.065
	c-0.019,0.012-0.04,0.023-0.062,0.032l-0.003,0.848l-0.724,0.143l-0.728,0.144l-4.735,0.933c-0.356,0.215-0.729,0.432-1.105,0.576
	v0.001c-0.039,0.015-0.079,0.024-0.119,0.027l-0.026,0.056l-0.204-0.092c-0.138-0.063-0.268-0.132-0.39-0.204l-4.424,0.871
	l-1.182,0.233l0,0l-16.46,3.243v2.579l31.192-6.831v-8.046l-1.818-0.285V52.233L71.732,52.233z M55.023,33.369
	c0.811-0.249,1.429-0.569,2.047-0.889c0.636-0.328,1.271-0.657,2.122-0.919c0.377-0.116,0.945-0.157,1.512-0.198
	c0.543-0.039,1.087-0.078,1.412-0.178c0.028-0.008,0.056-0.012,0.083-0.009l0,0c0.734,0.057,1.271,0.223,1.817,0.393
	c0.452,0.14,0.911,0.282,1.492,0.359c1.297,0.173,2.58,0.553,3.771,1.123c1.163,0.557,2.239,1.293,3.156,2.191
	c0.09,0.088,0.091,0.231,0.003,0.321c-0.025,0.026-0.055,0.044-0.087,0.055c-0.921,0.334-1.652,0.508-2.4,0.688
	c-0.801,0.192-1.623,0.389-2.739,0.802c-0.255,0.094-0.577,0.29-0.918,0.497c-0.392,0.238-0.808,0.492-1.214,0.647
	c-0.058,0.023-0.121,0.019-0.173-0.005l-0.001,0.001c-0.379-0.172-0.687-0.394-0.989-0.611c-0.249-0.179-0.494-0.355-0.767-0.489
	c-1.23-0.605-2.461-1.129-3.763-1.682c-0.691-0.294-1.401-0.596-2.114-0.91c-0.26-0.115-0.692-0.245-1.124-0.376
	c-0.43-0.13-0.86-0.26-1.152-0.387c-0.115-0.049-0.168-0.183-0.118-0.298C54.91,33.433,54.963,33.388,55.023,33.369L55.023,33.369
	L55.023,33.369z M28.82,56.509l0.08-0.015v-5.707l-1.273-0.314v7.375l1.273,0.33v-0.754l-0.113-0.029L28.82,56.509L28.82,56.509z
	 M31.901,58.208l-2.273-0.593v0.752l2.273,0.589V58.208L31.901,58.208z M29.627,56.365l2.273-0.406v-4.43l-2.273-0.561V56.365
	L29.627,56.365z M32.628,55.829l2.274-0.406V52.27l-2.274-0.562V55.829L32.628,55.829z M34.902,58.991l-2.274-0.593v0.747
	l2.274,0.59V58.991L34.902,58.991z M35.629,55.293l2.819-0.503v-1.644l-2.819-0.697V55.293L35.629,55.293z M38.448,59.916
	l-2.819-0.736v0.743l2.819,0.731V59.916L38.448,59.916z M39.176,54.66l1.637-0.292V53.73l-1.637-0.404V54.66L39.176,54.66z
	 M40.813,60.533l-1.637-0.427v0.737l1.637,0.424V60.533L40.813,60.533z M42.358,42.605v2.667l0.025-0.005l0.001,0.076L72.478,39.3
	l1.073-0.212v-8.289l-1.818-0.285v3.804c0.3,0.24,0.589,0.495,0.864,0.764c0.089,0.088,0.134,0.204,0.135,0.32
	c0,0.116-0.043,0.233-0.13,0.322c-0.026,0.026-0.052,0.048-0.08,0.066c-0.028,0.017-0.059,0.032-0.091,0.043l0,0
	c-0.245,0.089-0.476,0.166-0.698,0.236v0.348l0.738,0.17l-0.025,0.89l-0.713,0.122l-0.728,0.124l-11.003,1.876l-1.182,0.202
	L42.358,42.605L42.358,42.605z M28.833,38.243l0.067-0.01v-5.541l-1.273-0.314v7.466l1.273,0.33v-1.008l-0.124-0.036L28.833,38.243
	L28.833,38.243z M31.901,40.027l-2.273-0.654v0.988l2.273,0.59V40.027L31.901,40.027z M29.627,38.122l2.273-0.345v-4.344
	l-2.273-0.561V38.122L29.627,38.122z M32.628,37.666l2.274-0.345v-3.099h0.197l-2.471-0.61V37.666L32.628,37.666z M34.902,40.89
	l-2.274-0.654v0.904l2.274,0.589V40.89L34.902,40.89z M35.629,37.21l2.819-0.428v-1.732l-2.819-0.697V37.21L35.629,37.21z
	 M38.448,41.91l-2.819-0.81v0.818l2.819,0.731V41.91L38.448,41.91z M39.176,36.671l1.637-0.249v-0.789l-1.637-0.404V36.671
	L39.176,36.671z M40.813,42.589l-1.637-0.471v0.719l1.637,0.424V42.589L40.813,42.589z M60.001,31.193
	c0.222-0.022,0.455-0.039,0.689-0.056c0.266-0.019,0.532-0.038,0.766-0.063v-2.172l-1.455-0.228V31.193L60.001,31.193z
	 M62.183,30.948l0.034,0.003c0.757,0.059,1.306,0.228,1.863,0.401l0,0h0.001l0.003,0.001c0.123,0.038,0.248,0.077,0.373,0.114
	v-2.094l-2.273-0.357V30.948L62.183,30.948z M65.184,31.646c0.113,0.021,0.231,0.041,0.354,0.058
	c0.649,0.086,1.291,0.223,1.92,0.407v-2.254h0.09l-2.364-0.371V31.646L65.184,31.646z M68.185,32.349
	c0.404,0.145,0.803,0.312,1.192,0.498c0.566,0.27,1.111,0.582,1.627,0.933v-3.378h0.023l-2.842-0.446V32.349L68.185,32.349z
	 M73.55,42.088l-13.549,2.687v0.489l13.549,1.874V42.088L73.55,42.088z M27.627,49.642l13.186,3.012v-5.679l-13.186-3.663V49.642
	L27.627,49.642z"/>
</svg>
