<?xml version="1.0" encoding="iso-8859-1"?>
<!-- Generator: Adobe Illustrator 19.0.0, SVG Export Plug-In . SVG Version: 6.00 Build 0)  -->
<svg version="1.1" id="Layer_1" xmlns="http://www.w3.org/2000/svg" xmlns:xlink="http://www.w3.org/1999/xlink" x="0px" y="0px"
	 viewBox="0 0 100 100" style="enable-background:new 0 0 100 100;" xml:space="preserve">
<path id="XMLID_841_" style="fill-rule:evenodd;clip-rule:evenodd;fill:#231F20;" d="M49.621,33.722
	c4.891-0.048,8.621-0.342,13.425-0.334c6.725,0.011,12.086,0.148,18.823,0.153c6.661,0.004,7.638-0.101,14.406-0.123
	c1.077-0.004,1.036,0.102,0.253,0.68c-8.751,6.465-11.543,11.03-19.663,18.616c-2.463,2.3-5.08,5.205-7.828,7.245
	c-2.742,2.035-3.378,3.764-6.064,5.749c-0.378,0.279-0.472,0.398-1.011,0.382c-14.314-0.412-30.912,0.234-45.918,0.514
	c-3.943,0.074-7.556-0.385-11.54-0.324c-0.455,0.007-0.356-0.102-0.005-0.361c1.606-1.122,2.875-2.511,4.465-3.609
	c4.926-3.4,10.115-6.465,14.985-10.183c4.79-3.657,10.746-7.951,15.662-11.643c2.899-2.177,6.281-4.314,9.206-6.476
	C49.092,33.805,49.262,33.726,49.621,33.722L49.621,33.722z M56.72,41.854c6.253,2.368,8.447,2.173,16.342,2.997
	c-2.448,3.475-3.761,7.207-3.605,11.272c-6.074-2.638-7.264-3.11-14.494-2.592C56.62,49.711,57.476,45.837,56.72,41.854
	L56.72,41.854z M39.749,48.379c5.115,0.09,5.55-0.618,11.578-2.554c-1.124,4.128-0.199,7.878,0.729,11.669
	c-5.037-0.407-6.015-0.444-11.28,2.532C41.242,55.844,41.105,51.885,39.749,48.379L39.749,48.379z M45.761,39.6
	c7.723,0.092,10.125-0.865,19.225-2.838c-0.889,2.205-1.408,4.369-1.499,6.485c-1.963-0.351-3.891-0.889-6.574-1.905L56,40.996
	l0.183,0.959c0.365,1.924,0.34,3.825,0.024,5.709c-0.069,0.409-0.151,0.816-0.246,1.223c-1.401,0.192-2.817,0.542-4.598,1.125
	c-0.019-1.32,0.119-2.662,0.495-4.043l0.265-0.974l-0.962,0.309c-1.387,0.445-2.477,0.826-3.397,1.147l-0.103,0.036
	C47.557,44.058,46.991,41.746,45.761,39.6L45.761,39.6z"/>
</svg>
