<?xml version="1.0" encoding="iso-8859-1"?>
<!-- Generator: Adobe Illustrator 19.0.0, SVG Export Plug-In . SVG Version: 6.00 Build 0)  -->
<svg version="1.1" id="Layer_1" xmlns="http://www.w3.org/2000/svg" xmlns:xlink="http://www.w3.org/1999/xlink" x="0px" y="0px"
	 viewBox="0 0 100 100" style="enable-background:new 0 0 100 100;" xml:space="preserve">
<g id="XMLID_1457_">
	<path id="XMLID_851_" style="fill-rule:evenodd;clip-rule:evenodd;fill:#231F20;" d="M13.29,50.941h13.463v-2.156
		c-0.342,0.909-1.406,1.561-2.091,1.343c-0.098-0.031,2.092-0.349,1.548-2.295c-0.545-1.946-3.066-7.231-2.693-10.078
		c0.372-2.847,2.578-3.74,2.578-5.374c0-1.633-1.224-2.003-1.59-1.982c-0.366,0.021-0.666,0.806-0.494,1.263
		c0.171,0.457,0.086,0.631-0.065,0.631c-0.15,0-0.581-0.283-0.344-1.154c0.237-0.872,0.802-1.184,1.447-1.082
		c0.574,0.091,1.364,0.596,1.5,1.761c0.014-0.002,0.028-0.004,0.043-0.004h0.162v-1.736c-0.338-0.044-0.575-0.149-0.575-0.272
		c0-0.01,0.001-0.019,0.004-0.028c-0.002-0.011-0.004-0.023-0.004-0.034c0-0.157,0.238-0.292,0.576-0.349
		c0.001-0.014,0.002-0.029,0.006-0.043c-0.326,0.056-0.558,0.183-0.573,0.333c-0.005-0.016-0.008-0.032-0.008-0.049
		c0-0.162,0.254-0.301,0.61-0.354c0.015-0.025,0.034-0.046,0.056-0.065c-0.37,0.046-0.641,0.182-0.658,0.345
		c-0.005-0.016-0.008-0.033-0.008-0.049c0-0.014,0.002-0.028,0.005-0.041c-0.004-0.013-0.005-0.026-0.005-0.039
		c0-0.018,0.003-0.035,0.008-0.052c-0.005-0.016-0.008-0.033-0.008-0.049c0-0.209,0.417-0.378,0.932-0.378
		c0.516,0,0.933,0.169,0.933,0.378c0,0.005-0.001,0.01-0.002,0.014c-0.06-0.184-0.451-0.327-0.923-0.327
		c-0.502,0-0.911,0.161-0.932,0.362c0.063-0.184,0.453-0.325,0.924-0.325c0.516,0,0.933,0.168,0.933,0.377
		c0,0.005-0.001,0.01-0.002,0.015c-0.06-0.185-0.451-0.327-0.923-0.327c-0.451,0-0.827,0.129-0.914,0.302
		c0.1-0.165,0.468-0.287,0.906-0.287c0.516,0,0.933,0.169,0.933,0.378c0,0.005-0.001,0.01-0.002,0.015
		c-0.059-0.179-0.426-0.319-0.879-0.327c0.025,0.016,0.047,0.037,0.065,0.06c0.46,0.024,0.816,0.182,0.816,0.375
		c0,0.005-0.001,0.01-0.002,0.015c-0.054-0.165-0.373-0.297-0.779-0.323c0.005,0.014,0.008,0.03,0.011,0.045
		c0.438,0.031,0.77,0.186,0.77,0.372c0,0.005-0.001,0.01-0.002,0.016c-0.054-0.164-0.366-0.294-0.766-0.322v0.079
		c0.437,0.025,0.768,0.145,0.768,0.29c0,0.145-0.331,0.264-0.768,0.289v1.718h0.231c0.124-1.193,0.936-1.709,1.524-1.8
		c0.654-0.102,1.227,0.211,1.467,1.082c0.24,0.871-0.196,1.154-0.349,1.154c-0.153,0-0.239-0.174-0.065-0.632
		c0.174-0.457-0.13-1.241-0.501-1.263c-0.37-0.021-1.61,0.349-1.612,1.98v0.005c0.002,1.633,2.236,2.526,2.613,5.371
		c0.378,2.846-2.178,8.132-2.73,10.078c-0.552,1.946,1.669,2.263,1.569,2.295c-0.714,0.224-1.835-0.471-2.147-1.42v2.277h13.068
		c0,0,0.13,1.024-0.415,1.263c-0.237,0.104-0.469,0.233-0.676,0.37c-0.01-0.108-0.096-0.192-0.201-0.192H14.536
		c-0.023-0.016-0.046-0.032-0.069-0.047c-0.871-0.567-1.068-0.653-1.133-0.871C13.268,51.246,13.29,50.941,13.29,50.941
		L13.29,50.941z M26.525,32.795c-0.159,1.134-0.711,1.682-1.176,2.318c-0.53,0.726-1.533,2.149-1.246,3.979
		c0.287,1.83,1.919,6.128,2.149,6.709c0.125,0.319,0.358,0.828,0.501,1.388V32.804h-0.162
		C26.568,32.804,26.546,32.801,26.525,32.795L26.525,32.795z M27.275,32.804v14.454c0.141-0.605,0.4-1.162,0.536-1.501
		c0.232-0.58,1.888-4.879,2.178-6.708c0.291-1.83-0.725-3.253-1.263-3.979c-0.464-0.627-1.014-1.167-1.184-2.266H27.275
		L27.275,32.804z M27.535,27.134c0,0,0.086-0.403,0.196-0.795c0.109-0.392,0.305-0.479-0.087-1.057
		c-0.392-0.576-1.253-0.457-1.057,0.295c0.196,0.751,0.294,1.361,0.294,1.513v0.099c0.074-0.007,0.15-0.011,0.229-0.011
		c0.142,0,0.277,0.013,0.398,0.036C27.509,27.193,27.517,27.167,27.535,27.134L27.535,27.134z M26.727,27.21
		c-0.014-0.088-0.12-0.746-0.282-1.264c-0.174-0.556-0.25-1.089,0.381-1.198c0.632-0.108,1.111,0.425,1.155,0.752
		c0.043,0.327,0.076,0.555-0.098,1.089c-0.133,0.407-0.208,0.592-0.237,0.657c0.24,0.068,0.397,0.181,0.397,0.309
		c0,0.005-0.001,0.01-0.002,0.014c-0.06-0.184-0.451-0.327-0.923-0.327c-0.503,0-0.911,0.161-0.932,0.363
		c-0.005-0.017-0.008-0.033-0.008-0.05C26.178,27.402,26.403,27.27,26.727,27.21L26.727,27.21z M27.118,27.366
		c0.472,0,0.863,0.143,0.923,0.328c0.001-0.005,0.002-0.01,0.002-0.015c0-0.209-0.418-0.378-0.933-0.378
		c-0.515,0-0.932,0.169-0.932,0.378c0,0.014,0.002,0.028,0.006,0.043c-0.004,0.015-0.006,0.029-0.006,0.045
		c0,0.016,0.003,0.033,0.008,0.049c0.021-0.202,0.429-0.362,0.932-0.362c0.472,0,0.863,0.143,0.923,0.327
		c0.001-0.005,0.002-0.01,0.002-0.014c0-0.209-0.418-0.378-0.933-0.378c-0.459,0-0.839,0.134-0.918,0.31
		C26.248,27.511,26.641,27.366,27.118,27.366L27.118,27.366z M27.118,27.569c0.472,0,0.863,0.142,0.923,0.327
		c0.001-0.005,0.002-0.01,0.002-0.015c0-0.209-0.418-0.377-0.933-0.377c-0.515,0-0.932,0.168-0.932,0.377
		c0,0.016,0.002,0.031,0.007,0.046c-0.005,0.016-0.007,0.032-0.007,0.048c0,0.017,0.003,0.034,0.008,0.05
		c-0.005,0.017-0.008,0.034-0.008,0.052c0,0.016,0.002,0.031,0.007,0.046c-0.005,0.016-0.007,0.032-0.007,0.048
		c0,0.017,0.003,0.034,0.008,0.05c0.021-0.202,0.429-0.362,0.932-0.362c0.472,0,0.863,0.142,0.923,0.327
		c0.001-0.005,0.002-0.01,0.002-0.015c0-0.209-0.418-0.377-0.933-0.377c-0.467,0-0.854,0.139-0.922,0.32
		c0.036-0.196,0.437-0.349,0.93-0.35c0.472,0,0.863,0.143,0.923,0.328c0.001-0.005,0.002-0.01,0.002-0.015
		c0-0.209-0.418-0.378-0.933-0.378c-0.471,0-0.862,0.142-0.924,0.326c0.021-0.202,0.429-0.363,0.932-0.363
		c0.472,0,0.863,0.143,0.923,0.328c0.001-0.005,0.002-0.01,0.002-0.015c0-0.208-0.418-0.377-0.933-0.377
		c-0.467,0-0.854,0.139-0.922,0.32C26.224,27.723,26.626,27.569,27.118,27.569L27.118,27.569z M27.118,27.976
		c0.472,0,0.863,0.143,0.923,0.328c0.001-0.005,0.002-0.01,0.002-0.015c0-0.209-0.418-0.378-0.933-0.378
		c-0.515,0-0.932,0.169-0.932,0.378c0,0.017,0.003,0.033,0.008,0.05c-0.005,0.016-0.008,0.034-0.008,0.051
		c0,0.017,0.003,0.034,0.008,0.05c-0.005,0.017-0.008,0.034-0.008,0.051c0,0.018,0.003,0.034,0.008,0.051
		c0.021-0.202,0.429-0.363,0.932-0.363c0.472,0,0.863,0.143,0.923,0.328c0.001-0.005,0.002-0.01,0.002-0.016
		c0-0.208-0.418-0.378-0.933-0.378c-0.471,0-0.862,0.142-0.924,0.326c0.021-0.201,0.429-0.362,0.932-0.362
		c0.472,0,0.863,0.142,0.923,0.327c0.001-0.005,0.002-0.01,0.002-0.015c0-0.208-0.418-0.377-0.933-0.377
		c-0.471,0-0.861,0.142-0.924,0.325C26.207,28.136,26.616,27.976,27.118,27.976L27.118,27.976z M27.118,28.287
		c0.472,0,0.863,0.143,0.923,0.328c0.001-0.005,0.002-0.01,0.002-0.015c0-0.208-0.418-0.377-0.933-0.377
		c-0.515,0-0.932,0.169-0.932,0.377c0,0.016,0.002,0.031,0.007,0.046c-0.005,0.016-0.007,0.032-0.007,0.048
		c0,0.018,0.003,0.034,0.008,0.05c0.021-0.201,0.429-0.361,0.932-0.361c0.472,0,0.863,0.142,0.923,0.327
		c0.001-0.005,0.002-0.01,0.002-0.016c0-0.208-0.418-0.377-0.933-0.377c-0.467,0-0.854,0.139-0.922,0.32
		C26.223,28.443,26.626,28.288,27.118,28.287L27.118,28.287z M27.118,28.491c0.472,0,0.863,0.142,0.923,0.327
		c0.001-0.004,0.002-0.01,0.002-0.015c0-0.208-0.418-0.378-0.933-0.378c-0.515,0-0.932,0.17-0.932,0.378
		c0,0.017,0.003,0.034,0.008,0.05C26.207,28.652,26.615,28.491,27.118,28.491L27.118,28.491z M27.118,28.615
		c0.472,0,0.863,0.143,0.923,0.328c0.001-0.005,0.002-0.01,0.002-0.016c0-0.208-0.418-0.377-0.933-0.377
		c-0.515,0-0.932,0.169-0.932,0.377c0,0.018,0.003,0.034,0.008,0.05C26.207,28.776,26.615,28.615,27.118,28.615L27.118,28.615z
		 M27.118,28.724c0.472,0,0.863,0.142,0.923,0.327c0.001-0.005,0.002-0.01,0.002-0.015c0-0.208-0.418-0.377-0.933-0.377
		c-0.515,0-0.932,0.169-0.932,0.377c0,0.016,0.002,0.031,0.007,0.046c-0.005,0.016-0.007,0.032-0.007,0.048
		c0,0.016,0.002,0.031,0.007,0.046c-0.005,0.016-0.007,0.032-0.007,0.048c0,0.017,0.003,0.033,0.008,0.05
		c0.021-0.202,0.429-0.362,0.932-0.362c0.472,0,0.863,0.142,0.923,0.327c0.001-0.005,0.002-0.01,0.002-0.015
		c0-0.208-0.418-0.377-0.933-0.377c-0.467-0.001-0.854,0.139-0.922,0.32c0.036-0.195,0.438-0.349,0.93-0.349
		c0.472,0,0.863,0.142,0.923,0.328c0.001-0.005,0.002-0.01,0.002-0.015c0-0.209-0.418-0.378-0.933-0.378
		c-0.467,0-0.854,0.139-0.922,0.32C26.224,28.878,26.626,28.724,27.118,28.724L27.118,28.724z M26.202,29.742
		c0.069-0.093,0.277-0.169,0.551-0.205v-0.072C26.471,29.514,26.261,29.617,26.202,29.742L26.202,29.742z M27.412,64.674
		c-0.131-0.402-0.252-1.035-0.209-1.187c0.044-0.153,0.1-0.251,0.1-0.251s-0.125-0.057-0.244-0.09h0.477
		c0.072,0,0.131-0.059,0.131-0.13h-0.001c0-0.072-0.059-0.131-0.13-0.131h-1.728c-0.072,0-0.131,0.058-0.131,0.131l0,0
		c0,0.072,0.058,0.13,0.131,0.13h0.186c-0.065,0.025-0.114,0.048-0.114,0.048s0.055,0.098,0.098,0.25
		c0.043,0.152-0.076,0.784-0.207,1.187c-0.13,0.403-0.218,1.384,0.066,2.374c0.283,0.991,0.751,0.915,0.751,0.915v0.043
		c0,0,0.472,0.076,0.759-0.915C27.632,66.058,27.544,65.078,27.412,64.674L27.412,64.674z M26.854,63.146l-0.002,0.004
		c0,0-0.187,0.164,0.021,0.882c0.21,0.719,0.385,1.84,0.198,2.581c-0.186,0.741-0.483,0.947-0.483,0.947v-0.043
		c0,0-0.294-0.207-0.479-0.948s-0.011-1.863,0.196-2.581c0.153-0.533,0.091-0.76,0.049-0.843H26.854L26.854,63.146z M27.666,62.696
		c0,0.072-0.059,0.131-0.131,0.131h-1.728c-0.072,0-0.131-0.059-0.131-0.131l0,0c0-0.072,0.058-0.13,0.131-0.13h1.728
		C27.607,62.566,27.666,62.624,27.666,62.696L27.666,62.696L27.666,62.696z M27.666,62.399c0,0.072-0.059,0.13-0.131,0.13h-1.728
		c-0.072,0-0.131-0.058-0.131-0.13l0,0c0-0.072,0.058-0.131,0.131-0.131h1.728C27.607,62.268,27.666,62.326,27.666,62.399
		L27.666,62.399L27.666,62.399z M27.666,62.086c0,0.072-0.059,0.131-0.131,0.131h-1.728c-0.072,0-0.131-0.059-0.131-0.131l0,0
		c0-0.072,0.058-0.13,0.131-0.13h1.728C27.607,61.956,27.666,62.014,27.666,62.086L27.666,62.086L27.666,62.086z M27.652,61.767
		c0,0.072-0.059,0.13-0.131,0.13h-1.728c-0.072,0-0.131-0.058-0.131-0.13l0,0c0-0.072,0.058-0.131,0.131-0.131h1.728
		C27.593,61.636,27.652,61.694,27.652,61.767L27.652,61.767L27.652,61.767z M27.652,61.469c0,0.072-0.059,0.131-0.131,0.131h-1.728
		c-0.072,0-0.131-0.059-0.131-0.131l0,0c0-0.072,0.058-0.131,0.131-0.131h1.728C27.593,61.338,27.652,61.397,27.652,61.469
		L27.652,61.469L27.652,61.469z M28.036,61.062c0,0.137-0.11,0.247-0.247,0.247H25.43c-0.137,0-0.247-0.11-0.247-0.247v-0.246
		v-0.007h-0.276c-0.136,0-0.247-0.111-0.247-0.247v-0.167h-0.58c-0.136,0-0.246-0.161-0.247-0.359
		c-0.218-0.042-0.941-0.245-3.136-1.21c-2.875-1.263-6.055-5.619-6.055-5.619c0.125-0.054,0.253-0.097,0.382-0.128
		c0.347,0.466,3.319,4.386,6.021,5.574c1.579,0.693,2.396,0.993,2.812,1.122c0.04-0.123,0.125-0.208,0.224-0.208h1.277
		c-2.94-0.392-4.901-1.22-7.318-3.332c-1.882-1.645-2.471-2.748-3.05-3.424h23.946c-0.128,0.105-0.235,0.211-0.312,0.309
		c-0.24,0.304-2.701,3.855-5.794,5.031c-1.828,0.695-3.078,1.2-4.401,1.416h0.691c0.127,0,0.232,0.139,0.246,0.319
		c0.563-0.18,1.458-0.496,2.867-1.051c3.185-1.254,6.687-5.395,7.096-5.888c0.153,0.034,0.304,0.079,0.451,0.136
		c0,0-3.748,4.601-7.136,5.935c-1.849,0.729-2.812,1.046-3.304,1.184c-0.042,0.115-0.124,0.193-0.219,0.193h-0.559v0.167
		c0,0.136-0.11,0.247-0.247,0.247h-0.276v0.007V61.062L28.036,61.062z M30.236,57.324c0.828-1.394,2.178-4.4,2.178-4.4
		s0.089,0.014,0.223,0.056c-0.275-0.127-0.506-0.165-0.506-0.165s-1.351,3.006-2.178,4.4c-0.828,1.394-1.699,2.135-1.699,2.135
		s0.178-0.006,0.478-0.073C29.035,58.977,29.646,58.316,30.236,57.324L30.236,57.324z"/>
	<path id="XMLID_847_" style="fill-rule:evenodd;clip-rule:evenodd;fill:#231F20;" d="M55.002,72.952
		c2.87,0,0.839,0.148,1.693,0.186l0.746-33.648c-2.099-0.014-4.499-0.269-7.437-0.769c-3.188-0.542-6.037-1.27-8.065-2.01
		c-2.14-0.78-3.402-1.624-3.279-2.347c0.028-0.164,0.124-0.309,0.282-0.437l0,0l6.088-7.087c5.564-1.199,12.375,0.883,15.606,2.789
		l1.411,8.252l0,0c0.093,0.162,0.129,0.32,0.103,0.472c-0.12,0.705-1.52,1.084-3.701,1.13l-0.044,33.559
		c3.1,0.177,5.273,0.586,5.273,1.064c0,0.639-3.884,1.157-8.676,1.157s-8.676-0.518-8.676-1.157
		C46.325,73.47,52.131,72.952,55.002,72.952L55.002,72.952z M57.442,38.846l0.132-2.671c-1.903-0.617-4.158-1.209-6.853-1.667
		c-3.16-0.537-6.056-0.789-8.184-0.761c-2.011,0.026-3.292,0.262-3.367,0.702c-0.075,0.441,1.056,1.088,2.945,1.776
		c2.001,0.729,4.817,1.449,7.975,1.986C53.002,38.707,55.372,38.831,57.442,38.846L57.442,38.846z M58.452,36.407l-0.003,2.563
		c1.909-0.037,3.118-0.273,3.19-0.699c0.075-0.441-1.056-1.087-2.945-1.776C58.615,36.465,58.534,36.436,58.452,36.407
		L58.452,36.407z"/>
	<polygon id="XMLID_846_" style="fill-rule:evenodd;clip-rule:evenodd;fill:#231F20;" points="73.893,45.089 84.753,45.089 
		88.011,58.121 80.828,58.121 80.204,59.732 85.821,75.266 83.926,75.266 80.051,64.547 79.888,75.266 78.166,75.266 78.329,64.576 
		74.189,75.266 72.27,75.266 78.297,59.698 77.728,58.121 70.324,58.121 73.893,45.089 	"/>
</g>
</svg>
