<?xml version="1.0" encoding="iso-8859-1"?>
<!-- Generator: Adobe Illustrator 19.0.0, SVG Export Plug-In . SVG Version: 6.00 Build 0)  -->
<svg version="1.1" id="Layer_1" xmlns="http://www.w3.org/2000/svg" xmlns:xlink="http://www.w3.org/1999/xlink" x="0px" y="0px"
	 viewBox="0 0 100 100" style="enable-background:new 0 0 100 100;" xml:space="preserve">
<path id="XMLID_874_" style="fill-rule:evenodd;clip-rule:evenodd;fill:#231F20;" d="M49.194,42.702c0.378,0,0.714,0.2,0.951,0.524
	c0.217,0.297,0.352,0.701,0.352,1.143s-0.135,0.847-0.352,1.143c-0.237,0.323-0.573,0.524-0.951,0.524
	c-0.378,0-0.713-0.2-0.95-0.524c-0.218-0.296-0.352-0.701-0.352-1.143s0.134-0.846,0.352-1.143
	C48.481,42.903,48.817,42.702,49.194,42.702L49.194,42.702z M79.246,54.713l0.294,4.843l2.619-0.151l0.254-5.083l1.019-0.167v-0.307
	l-54.476,7.153l-11.089-4.48v0.603l0.183,0.074l-0.001,6.319h2.969l0.72-4.824l6.305,2.556l0.119,6.349h2.944l1.006-6.297
	L79.246,54.713L79.246,54.713z M83.432,53.116v-9.409l-31.187,2.402l-0.052,10.737L83.432,53.116L83.432,53.116z M83.432,42.184
	v-8.753l-31.124-0.414L52.255,44L83.432,42.184L83.432,42.184z M51.101,33.002l-21.342-0.284l-0.115,26.821l21.341-2.548
	L51.101,33.002L51.101,33.002z M28.753,32.704l-10.886-0.302l-0.001,22.896l10.773,4.154L28.753,32.704L28.753,32.704z
	 M49.658,43.584c-0.124-0.17-0.288-0.276-0.463-0.276c-0.174,0-0.338,0.105-0.463,0.276c-0.144,0.196-0.234,0.474-0.234,0.785
	c0,0.312,0.09,0.589,0.234,0.786c0.124,0.17,0.289,0.275,0.463,0.275c0.175,0,0.339-0.105,0.463-0.275
	c0.144-0.197,0.234-0.474,0.234-0.786C49.892,44.058,49.802,43.78,49.658,43.584L49.658,43.584z"/>
</svg>
