<?xml version="1.0" encoding="iso-8859-1"?>
<!-- Generator: Adobe Illustrator 19.0.0, SVG Export Plug-In . SVG Version: 6.00 Build 0)  -->
<svg version="1.1" id="Layer_1" xmlns="http://www.w3.org/2000/svg" xmlns:xlink="http://www.w3.org/1999/xlink" x="0px" y="0px"
	 viewBox="0 0 100 100" style="enable-background:new 0 0 100 100;" xml:space="preserve">
<path id="XMLID_975_" style="fill-rule:evenodd;clip-rule:evenodd;fill:#231F20;" d="M26.42,24.486h18.905V53.94h29.552v16.753
	H45.325v1.537h29.552v3.284H45.325h-0.192H26.42V24.486L26.42,24.486z M49.783,27.826h22.44v1.033h-22.44V27.826L49.783,27.826z
	 M36.711,32.613c-1.118,5.363-1.189,5.883-3.306,11.154c-0.024,0.061-1.503,4.789-1.614,4.858c0.008-0.005,2.148-7.354,2.202-7.497
	C35.366,37.533,35.777,36.204,36.711,32.613L36.711,32.613z M39.717,33.626c-0.245,0.978-4.529,15.011-5.124,15.126
	c0.183-0.042,1.211-4.051,1.211-4.051C37.002,40.32,38.489,37.607,39.717,33.626L39.717,33.626z M52.674,30.907v0.971h5.04v-0.971
	h0.384h0.073h0.312v0.971h5.04v-0.971h0.385h0.073h0.312v0.971h5.04v-0.971h0.384h0.073h0.312v0.971h2.122v0.513h-2.122v1.7
	c0.23,0.142,0.384,0.406,0.384,0.709c0,0.302-0.154,0.567-0.384,0.708v0.923h-0.384h-0.384v-0.923
	c-0.23-0.142-0.384-0.406-0.384-0.708c0-0.303,0.154-0.568,0.384-0.709v-1.7h-5.04v1.7c0.229,0.142,0.384,0.406,0.384,0.709
	c0,0.302-0.155,0.567-0.384,0.708v0.923h-0.384h-0.385v-0.923c-0.229-0.142-0.384-0.406-0.384-0.708
	c0-0.303,0.155-0.568,0.384-0.709v-1.7h-5.04v1.7c0.23,0.142,0.384,0.406,0.384,0.709c0,0.302-0.154,0.567-0.384,0.708v0.923h-0.384
	h-0.384v-0.923c-0.23-0.142-0.384-0.406-0.384-0.708c0-0.303,0.154-0.568,0.384-0.709v-1.7h-5.04v1.7
	c0.23,0.142,0.384,0.406,0.384,0.709c0,0.302-0.154,0.567-0.384,0.708v0.923H52.29h-0.384v-0.923
	c-0.23-0.142-0.384-0.406-0.384-0.708c0-0.303,0.154-0.568,0.384-0.709v-1.7h-2.123v-0.513h2.123v-0.971h0.384h0.073H52.674
	L52.674,30.907z M45.325,54.869v4.278h27.861v-4.278H45.325L45.325,54.869z M45.325,60.248v4.278h27.861v-4.278H45.325
	L45.325,60.248z M45.325,65.688v4.278h27.861v-4.278H45.325L45.325,65.688z M54.676,56.768h9.335v0.48h-9.335V56.768L54.676,56.768z
	 M54.676,62.147h9.335v0.48h-9.335V62.147L54.676,62.147z M54.676,67.587h9.335v0.48h-9.335V67.587L54.676,67.587z M28.572,69.929
	h14.602v4.279H28.572V69.929L28.572,69.929z M33.411,71.828h4.923v0.481h-4.923V71.828L33.411,71.828z M28.572,64.474h14.602v4.278
	H28.572V64.474L28.572,64.474z M33.411,66.374h4.923v0.48h-4.923V66.374L33.411,66.374z M28.572,59.127h14.602v4.278H28.572V59.127
	L28.572,59.127z M33.411,61.026h4.923v0.48h-4.923V61.026L33.411,61.026z M28.572,26.409h14.602v29.99H28.572V26.409L28.572,26.409z
	"/>
</svg>
