<?xml version="1.0" encoding="iso-8859-1"?>
<!-- Generator: Adobe Illustrator 19.0.0, SVG Export Plug-In . SVG Version: 6.00 Build 0)  -->
<svg version="1.1" id="Layer_1" xmlns="http://www.w3.org/2000/svg" xmlns:xlink="http://www.w3.org/1999/xlink" x="0px" y="0px"
	 viewBox="0 0 100 100" style="enable-background:new 0 0 100 100;" xml:space="preserve">
<path id="XMLID_1292_" style="fill:#231F20;" d="M84.315,42.423l0.001,18.41L49.835,72.019l0,0h-0.001l-0.185,0.06l-0.02-0.06
	h-1.275V55.846l-15.608-8.698l0,0l-14.285,4.005h-1.479V33.988l31.15-6.067L84.315,42.423L84.315,42.423z M18.462,49.62
	l17.009-4.769l-17.009-9.994V49.62L18.462,49.62z M34.762,46.583l13.593,7.574v-1.737l-11.117-6.532L34.762,46.583L34.762,46.583z
	 M49.835,54.982L67.4,64.77l15.436-5.007l-0.001-16.902l-33,9.775V54.982L49.835,54.982z M65.485,65.392l-15.65-8.721v13.798
	L65.485,65.392L65.485,65.392z"/>
</svg>
