<?xml version="1.0" encoding="iso-8859-1"?>
<!-- Generator: Adobe Illustrator 19.0.0, SVG Export Plug-In . SVG Version: 6.00 Build 0)  -->
<svg version="1.1" id="Layer_1" xmlns="http://www.w3.org/2000/svg" xmlns:xlink="http://www.w3.org/1999/xlink" x="0px" y="0px"
	 viewBox="0 0 100 100" style="enable-background:new 0 0 100 100;" xml:space="preserve">
<path id="XMLID_951_" style="fill-rule:evenodd;clip-rule:evenodd;fill:#231F20;" d="M48.08,43.37
	c0.078-0.19,0.148-0.405,0.148-0.56c0-0.274-0.356-0.269-0.356-0.269s-0.053-0.138-0.053-0.269c0-0.118,0.053-0.23,0.053-0.23
	s0.701-1.717,2.103-2.18c0.77-0.254,1.793-0.05,2.471,0.164c0.448,0.141,0.659,0.365,0.659,0.365s0.931-2.052,1.335-4.145
	c0.314-1.627,0.125-3.416,0.125-3.416s-0.341-1.271-0.053-1.9c0.332-0.727,1.299-0.825,1.299-0.825l6.835,1.113
	c0,0,0.345,0.1,0.498,0.48c0.149,0.369,0.107,1.017,0.107,1.017s0.114,2.715-0.178,5.182c-0.276,2.327-0.961,4.414-0.961,4.414
	s0.606,0.413,0.767,0.658c-2.395,0.14-5.7,0.291-7.945,0.345C52.632,43.369,50.348,43.386,48.08,43.37L48.08,43.37z M28.626,42.771
	l-12.15,7.267v1.843c1.439,0.665,5.114,0.931,6.835,1.126v14.125c-1.005,1.608,0.131,2.764,1.851,2.764
	c1.73,0,2.916-1.081,1.946-2.764l0.118-13.765h0.69c11.108,0.982,16.741,1.478,22.398,1.469c5.669-0.008,11.462-0.431,22.767-1.469
	h0.69v13.801c-0.48,0-1.471,2.471,1.891,2.471c1.502,0,3.541-0.912,2.041-2.61V53.007c2.125-0.29,5.161-0.59,7.119-1.331v-1.638
	L77.05,45.01l-0.227,1.534c0.517,0.096,1.533,0.352,1.533,1.013c0,0.389-0.389,0.702-1.018,0.891c-1.022,0.308-2.913,0.304-3.922,0
	c-0.629-0.189-1.018-0.502-1.018-0.891c0-0.39,0.389-0.702,1.018-0.892c0.626-0.188,1.401-0.259,2.054-0.246l0.315-2.229
	l-2.353-1.522c-7.881,0.724-14.739,1.134-21.383,1.211c-1.196,0.013-2.389,0.015-3.578,0.009
	C42.04,43.845,35.676,43.479,28.626,42.771L28.626,42.771z M27.911,54.059l-0.083,13.128c2.336,0.179,12.908,0.94,23.533,0.916
	c9.772-0.022,19.38-0.818,21.72-1.026V54.057c-11.284,1.035-17.076,1.457-22.767,1.466C44.608,55.532,38.983,55.037,27.911,54.059
	L27.911,54.059z M76.432,46.83l1.436-9.739c0,0,0.047-0.32-0.024-0.512c-0.071-0.192-0.261-0.256-0.261-0.256l-8.448-2.2
	c-0.352-0.099-2.85-0.627-2.943-0.717c0,0-0.372-0.279-0.733-0.305c-1.01-0.073-1.717,1.108-2.067,1.892
	c0.99,1.022,2.7,0.754,3.939,0.409c0,0-0.157-0.777,0.166-0.895c0.574-0.211,1.78,0.179,1.78,0.179l7.879,2.252l-1.389,9.836
	c-0.128-0.006-0.257-0.01-0.39-0.01c-1.455,0-2.634,0.355-2.634,0.793c0,0.438,1.18,0.793,2.634,0.793
	c1.455,0,2.634-0.355,2.634-0.793C78.011,47.232,77.361,46.953,76.432,46.83L76.432,46.83z"/>
</svg>
