<?xml version="1.0" encoding="iso-8859-1"?>
<!-- Generator: Adobe Illustrator 19.0.0, SVG Export Plug-In . SVG Version: 6.00 Build 0)  -->
<svg version="1.1" id="Layer_1" xmlns="http://www.w3.org/2000/svg" xmlns:xlink="http://www.w3.org/1999/xlink" x="0px" y="0px"
	 viewBox="0 0 100 100" style="enable-background:new 0 0 100 100;" xml:space="preserve">
<path id="XMLID_1307_" style="fill-rule:evenodd;clip-rule:evenodd;fill:#231F20;" d="M17.096,29.464h13.048v23.984H17.096V29.464
	L17.096,29.464z M30.828,43.631h16.528v-0.001c0-1.298-3.673-2.361-4.971-2.361H35.55C34.252,41.27,30.828,42.332,30.828,43.631
	L30.828,43.631L30.828,43.631z M35.612,29.464h6.835v10.563h-6.835V29.464L35.612,29.464z M47.791,29.464H62.3v16.528H47.791V29.464
	L47.791,29.464z M71.775,44.609v-3.945h0.621v3.945H71.775L71.775,44.609z M74.509,44.609v-3.945h0.621v3.945H74.509L74.509,44.609z
	 M62.921,29.464h10.501v16.528H62.921V29.464L62.921,29.464z M74.043,29.464h10.159v16.528H74.043V29.464L74.043,29.464z
	 M76.311,30.769h6.835v13.732h-6.835V30.769L76.311,30.769z M64.07,30.769h6.835v13.732H64.07V30.769L64.07,30.769z M52.078,43.445
	h5.903v0.621h-5.903V43.445L52.078,43.445z M17.096,55.064h13.142v15.472H17.096V55.064L17.096,55.064z M70.532,66.373h5.903v0.621
	h-5.903V66.373L70.532,66.373z M70.532,58.605h5.903v0.621h-5.903V58.605L70.532,58.605z M53.631,67.864H56.8v0.621h-3.169V67.864
	L53.631,67.864z M53.631,62.582H56.8v0.621h-3.169V62.582L53.631,62.582z M53.631,57.3H56.8v0.622h-3.169V57.3L53.631,57.3z
	 M33.749,56.949h10.997v0.828H33.749V56.949L33.749,56.949z M30.859,55.064h16.466v15.472H30.859V55.064L30.859,55.064z
	 M47.946,55.064H62.3v4.847H47.946V55.064L47.946,55.064z M62.3,60.532v4.66H47.946v-4.66H62.3L62.3,60.532z M62.3,65.813v4.722
	H47.946v-4.722H62.3L62.3,65.813z M62.921,55.064h21.281v7.456H62.921V55.064L62.921,55.064z M84.202,63.141v7.394H62.921v-7.394
	H84.202L84.202,63.141z M33.346,59.6h11.741h0.311v0.311v8.513v0.31h-0.311H33.346h-0.311v-0.31v-8.513V59.6H33.346L33.346,59.6z
	 M44.776,60.221h-11.12v7.891h11.12V60.221L44.776,60.221z M34.202,60.532H44.23v7.27H34.202V60.532L34.202,60.532z M28.467,60.703
	v-3.946h0.621v3.946H28.467L28.467,60.703z M28.467,51.755V47.81h0.621v3.946H28.467L28.467,51.755z"/>
</svg>
