<?xml version="1.0" encoding="iso-8859-1"?>
<!-- Generator: Adobe Illustrator 19.0.0, SVG Export Plug-In . SVG Version: 6.00 Build 0)  -->
<svg version="1.1" id="Layer_1" xmlns="http://www.w3.org/2000/svg" xmlns:xlink="http://www.w3.org/1999/xlink" x="0px" y="0px"
	 viewBox="0 0 100 100" style="enable-background:new 0 0 100 100;" xml:space="preserve">
<path id="XMLID_897_" style="fill-rule:evenodd;clip-rule:evenodd;fill:#231F20;" d="M50.921,50.665
	c0.106,0.128,0.208,0.269,0.301,0.426c0.207,0.352,0.356,0.777,0.362,1.317c0.008,0.658-0.007,1.378-0.032,2.077
	c-0.025,0.709-0.061,1.384-0.094,1.95c-0.02,0.346-0.179,0.56,0.063,0.908c0.086,0.124,0.221,0.218,0.406,0.28
	c2.272,0.008,4.497,0.016,6.613,0.023c6.683,0.024,12.279,0.044,14.864,0.039c0.783-0.044,2.004-0.259,3.22-0.761
	c1.01-0.417,2.01-1.032,2.734-1.91c0.113-0.138,0.294-0.363,0.446-0.596c0.134-0.205,0.244-0.409,0.247-0.527
	c0-0.03-0.041,0.007-0.073-0.012l-0.001,0.001c-0.069-0.043-0.13-0.082-0.185-0.154l-0.001-0.001
	c-0.034-0.044-0.061-0.088-0.079-0.131l-0.414-0.763c-0.196-0.361-0.439-0.709-0.723-1.005c-0.252-0.263-0.538-0.49-0.854-0.653
	c-0.653-0.337-1.32-0.639-2.006-0.865c-0.679-0.223-1.376-0.37-2.094-0.401c-3.4-0.147-7.065-0.143-10.728-0.069
	c-3.66,0.074-7.334,0.221-10.742,0.36c-0.489,0.02-0.868,0.249-1.137,0.412C50.981,50.63,50.951,50.648,50.921,50.665L50.921,50.665
	z M14.788,65.125V64.78l-4.199,0.111v0.233c0.117,0.226,0.259,0.423,0.428,0.587c0.174,0.168,0.374,0.301,0.602,0.397l0.119,0.024
	h1.62l0.038-0.002c0.334-0.041,0.615-0.177,0.858-0.381C14.48,65.562,14.618,65.406,14.788,65.125L14.788,65.125L14.788,65.125z
	 M14.788,64.574v-0.011l70.05,0.087v0.033l4.199,0.012v-0.041l0.814,0.001c0.591,0.001,1.122-0.377,1.571-1.176
	c0.468-0.832,0.837-2.096,1.087-3.835c0.208-1.451,0.17-2.813-0.025-4.088c-0.195-1.276-0.547-2.466-0.967-3.565l-0.021-0.053
	c-0.062,0.001-0.121-0.002-0.178-0.005l0,0l-0.055-0.003l0,0c-1.894-0.076-3.668,0.2-5.638,0.99c-1.989,0.798-4.18,2.12-6.891,4.131
	l-0.098,0.072c-0.823,0.614-1.497,1.116-3.834,1.171c-0.226,0.005-0.701,0.009-1.387,0.01c-0.233,0.013-0.431,0.012-0.585,0.001
	c-2.789,0.002-8.071-0.018-14.291-0.04c-9.855-0.036-22.069-0.08-30.46-0.064c-0.72,0.002-1.558-0.096-2.502-0.375
	c-0.939-0.278-1.984-0.736-3.126-1.456c-0.384-0.242-0.436-0.275-0.529-0.334c-1.272-0.808-2.561-1.627-4.059-2.257
	c-0.718-0.302-1.681-0.629-2.799-0.948c-1.071-0.305-2.275-0.601-3.538-0.859c-0.206-0.042-0.535-0.062-0.893-0.083
	c-0.656-0.039-1.397-0.083-1.885-0.305c-0.094,0.265-0.24,0.59-0.393,0.928v0.001c-0.228,0.509-0.472,1.05-0.548,1.363
	c-0.363,1.488-0.505,2.977-0.442,4.385c0.064,1.429,0.34,2.773,0.81,3.948c0.301,0.752,0.572,1.406,0.959,1.845
	c0.336,0.382,0.78,0.614,1.454,0.624v0.007L14.788,64.574L14.788,64.574z M84.838,64.89v0.23v0.005l0.004,0.002
	c0.171,0.281,0.351,0.506,0.568,0.675c0.232,0.179,0.496,0.29,0.824,0.33l0.038,0.002h1.62l0.119-0.024
	c0.229-0.096,0.429-0.229,0.602-0.397c0.17-0.164,0.312-0.361,0.429-0.587l-0.003-0.002v-0.222L84.838,64.89L84.838,64.89z
	 M91.432,51.32c-0.047-0.033-0.101-0.069-0.162-0.106c-0.701-0.442-1.399-0.91-2.094-1.404c-0.621-0.442-1.237-0.903-1.848-1.383
	c-0.052,0.062-0.104,0.124-0.156,0.188c-0.423,0.515-0.933,1.138-2.394,2.084c-0.736,0.477-1.268,0.794-1.739,1.075
	c-0.798,0.476-1.417,0.844-2.551,1.713c0.103,0.092,0.186,0.218,0.18,0.422v0.001c-0.006,0.253-0.16,0.562-0.346,0.848
	c-0.168,0.258-0.364,0.503-0.487,0.652c-0.065,0.078-0.131,0.154-0.199,0.229c2.188-1.539,4.044-2.602,5.761-3.29
	c2.057-0.825,3.913-1.113,5.894-1.034h0.003l0.055,0.003h0.002C91.378,51.317,91.405,51.319,91.432,51.32L91.432,51.32z
	 M87.056,47.8c0.264-0.333,0.517-0.736,0.768-1.228c0.249-0.487,0.493-1.056,0.741-1.725l-0.043,0.011l-0.066,0.016
	c-0.578,0.146-1.135,0.287-1.769,0.238c-0.273-0.021-0.56-0.082-0.819-0.16c-0.303-0.091-0.577-0.209-0.753-0.316
	c-0.073-0.044-0.233-0.056-0.385-0.068c-0.192-0.015-0.374-0.029-0.532-0.113c-0.148-0.079-0.237-0.143-0.317-0.2
	c-0.094-0.068-0.172-0.124-0.386-0.189c-0.043-0.013-0.093-0.015-0.136-0.016c-0.177-0.006-0.319-0.011-0.474-0.208
	c-0.25-0.316-0.555-0.595-0.883-0.81c-0.311-0.203-0.638-0.346-0.954-0.403c-0.36-0.065-0.368-0.141-0.392-0.374
	c-0.005-0.05-0.016-0.153-0.44-0.514c-0.155-0.132-0.304-0.269-0.449-0.409c-0.143-0.137-0.283-0.279-0.424-0.422
	c-0.031-0.032-0.062,0.096-0.245,0.219h-0.001l-0.092,0.061c-0.13,0.087-0.287,0.137-0.46,0.167
	c-0.071,0.012-0.146,0.021-0.223,0.028c-0.066,0.392-0.181,0.856-0.304,1.357c-0.184,0.747-0.389,1.579-0.475,2.342
	c-0.127,1.136-0.049,2.187,0.019,3.088c0.025,0.333,0.048,0.646,0.06,0.964c0.011,0.294,0.012,0.529-0.046,0.767
	c-0.035,0.141-0.09,0.277-0.173,0.417c0.204,0.096,0.406,0.197,0.607,0.3c0.377,0.194,0.717,0.463,1.017,0.776
	c0.329,0.344,0.605,0.736,0.822,1.136l0.254,0.469c1.162-0.891,1.799-1.271,2.623-1.762c0.468-0.279,0.997-0.594,1.72-1.062
	c1.381-0.895,1.858-1.477,2.253-1.959C86.816,48.073,86.93,47.934,87.056,47.8L87.056,47.8z M77.682,41.427l0.064-0.394
	c0.071-0.346,0.181-0.669,0.32-0.978c0.12-0.265,0.263-0.522,0.424-0.773c-0.195-0.036-0.502-0.029-0.909,0.031
	c-0.153,0.023-0.269,0.044-0.387,0.066c-0.406,0.074-0.827,0.151-1.398,0.133h-0.002l0,0h-0.006l-0.375-0.012v-0.001
	c-0.578-0.018-1.141-0.028-1.709-0.037c-0.881-0.015-1.777-0.029-2.733-0.076c-0.825-0.039-1.625-0.297-2.419-0.551
	c-0.42-0.135-0.838-0.269-1.256-0.367h-0.001l-0.168-0.04c-0.665-0.158-1.066-0.254-1.166,0.014
	c-0.248,0.666-0.14,1.475-0.031,2.282c0.087,0.643,0.173,1.285,0.095,1.904c-0.099,0.785-0.239,1.593-0.435,2.369
	c-0.2,0.787-0.459,1.547-0.797,2.23c-0.125,0.252-0.272,0.487-0.419,0.72c-0.19,0.301-0.38,0.603-0.5,0.92
	c-0.032,0.084-0.047,0.198-0.045,0.305l0.001,0.031c3.361-0.056,6.701-0.048,9.818,0.087c0.781,0.033,1.532,0.192,2.26,0.431
	c0.311,0.102,0.618,0.219,0.921,0.347c0.073-0.108,0.117-0.208,0.142-0.309c0.041-0.164,0.039-0.355,0.03-0.598
	c-0.01-0.27-0.034-0.595-0.06-0.94c-0.069-0.927-0.15-2.008-0.016-3.203c0.09-0.801,0.3-1.655,0.489-2.422
	C77.518,42.168,77.617,41.769,77.682,41.427L77.682,41.427z M75.548,38.882c0.011-0.089,0.016-0.179,0.023-0.273
	c0.015-0.227,0.032-0.478,0.106-0.815c0.077-0.351,0.199-0.642,0.311-0.909h0.001c0.089-0.212,0.17-0.406,0.203-0.577
	c0.033-0.17,0.065-0.334,0.095-0.492c0.15-0.788,0.272-1.427,0.442-1.882c-0.061,0.016-0.13,0.034-0.206,0.054
	c-0.389,0.104-0.523,0.141-0.661,0.178c-0.933,0.254-1.851,0.504-2.829,0.681c-0.499,0.09-1.027,0.222-1.583,0.36
	c-0.475,0.118-0.97,0.242-1.51,0.354c-0.759,0.157-1.542,0.275-2.298,0.345c-0.65,0.061-1.279,0.086-1.854,0.073
	c-0.018,0.07-0.039,0.144-0.06,0.221c-0.111,0.408-0.243,0.891-0.248,1.329c-0.002,0.145,0.011,0.288,0.032,0.433
	c0.325-0.483,0.892-0.348,1.759-0.142l0.168,0.04v0.001c0.429,0.101,0.865,0.241,1.303,0.381c0.754,0.242,1.515,0.487,2.258,0.523
	c0.967,0.047,1.848,0.062,2.714,0.076C74.328,38.852,74.935,38.863,75.548,38.882L75.548,38.882z M65.239,35.617
	c0.009-0.134,0.015-0.263,0.02-0.39c0.005-0.151,0.009-0.304,0.011-0.463c0.002-0.15-0.008-0.243-0.036-0.261h-0.001
	c-0.041-0.027-0.157-0.004-0.371,0.081c-0.869,0.348-1.768,0.439-3.053,0.571L61.377,35.2c-0.447,0.047-0.913,0.172-1.401,0.302
	c-0.846,0.227-1.755,0.47-2.84,0.396c-0.076-0.005-0.107-0.008-0.142-0.011c-0.466-0.035-0.839-0.063-3.138,0.222
	c-0.577,0.072-1.142,0.117-1.709,0.145c-0.457,0.022-0.916,0.032-1.384,0.035c-0.019,0.586-0.051,1.241-0.083,1.911
	c-0.08,1.648-0.165,3.391-0.065,4.255c0.212,1.835,0.058,2.854-0.094,3.862c-0.105,0.69-0.209,1.376-0.186,2.316
	c0.008,0.321,0.094,0.568,0.177,0.808c0.072,0.206,0.141,0.408,0.175,0.646l0.008-0.005c0.327-0.198,0.785-0.476,1.434-0.502
	c3.402-0.139,7.071-0.285,10.754-0.36l0.331-0.007l-0.001-0.033c-0.004-0.179,0.025-0.377,0.084-0.533
	c0.142-0.375,0.348-0.703,0.556-1.032c0.138-0.219,0.276-0.439,0.388-0.665c0.316-0.639,0.561-1.359,0.751-2.107
	c0.192-0.76,0.328-1.541,0.423-2.296c0.067-0.536-0.013-1.139-0.094-1.743c-0.053-0.395-0.106-0.79-0.122-1.178
	c-0.039-0.344-0.106-0.643-0.168-0.924c-0.089-0.4-0.171-0.766-0.166-1.176c0.005-0.519,0.148-1.044,0.269-1.487
	C65.171,35.893,65.208,35.756,65.239,35.617L65.239,35.617z M50.151,35.974c0.004-0.245-0.032-0.41-0.11-0.5
	c-0.066-0.076-0.187-0.11-0.367-0.106c-0.867,0.016-1.634-0.031-2.383-0.078c-0.971-0.06-1.912-0.119-2.968-0.028
	c-0.094,0.008-0.157,0.032-0.215,0.055c-0.273,0.106-0.503,0.194-1.631-0.224c-0.244-0.09-0.456-0.067-0.705-0.039
	c-0.196,0.022-0.412,0.046-0.688,0.032c-0.51-0.025-0.7-0.075-0.908-0.13c-0.145-0.038-0.3-0.079-0.625-0.114
	c-0.228-0.025-0.427-0.045-0.635-0.066c-1.346-0.134-3.068-0.307-4.827-0.849c-0.113-0.035-0.238-0.049-0.352-0.04
	c-0.067,0.005-0.124,0.019-0.164,0.04c-0.011,0.006-0.016,0.006-0.016,0.007l0.001,0.012v0.001c0.038,0.462,0.092,0.889,0.165,1.27
	c0.116,0.601,0.508,1.059,0.483,1.419c-0.014,0.208-0.091,0.499-0.235,0.878c0.046,0.103,0.084,0.234,0.114,0.402
	c0.066,0.372,0.067,0.944,0.068,1.588c0.002,0.692,0.003,1.471,0.089,2.142c0.074,0.584,0.175,1.191,0.277,1.798
	c0.046,0.271,0.091,0.543,0.147,0.9l0,0l0.229,1.245c0.157,0.852,0.314,1.705,0.47,2.557c0.057,0.312,0.079,0.623,0.025,0.885
	c1.272,0.02,2.502,0.027,3.7,0.034c3.514,0.021,6.754,0.04,9.889,0.368c0.439,0.046,0.757,0.195,0.998,0.358
	c-0.016-0.05-0.033-0.1-0.051-0.15c-0.099-0.285-0.201-0.578-0.211-0.997c-0.025-1.004,0.083-1.711,0.191-2.423
	c0.147-0.969,0.295-1.946,0.092-3.699c-0.106-0.909-0.019-2.679,0.063-4.354C50.099,37.377,50.136,36.604,50.151,35.974
	L50.151,35.974L50.151,35.974z M33.585,36.622c-0.52-0.016-0.964-0.125-1.488-0.253c-0.168-0.042-0.347-0.085-0.602-0.141
	c-0.157-0.035-0.384-0.068-0.616-0.089c-0.209-0.019-0.426-0.029-0.604-0.023c-0.395,0.013-1.311-0.173-1.965-0.306
	c-0.235-0.048-0.433-0.088-0.565-0.11c-1.421-0.235-3.012-0.731-4.676-1.251c-0.6-0.187-1.208-0.377-1.796-0.551
	c-0.035-0.011-0.066-0.02-0.094-0.029c0.032,0.161,0.089,0.428,0.17,0.775c0.083,0.357,0.192,0.788,0.326,1.259
	c0.061,0.215,0.1,0.342,0.138,0.469c0.109,0.359,0.219,0.723,0.319,1.161c0.281,0.067,0.611,0.213,0.978,0.376
	c0.658,0.291,1.448,0.64,2.095,0.598l1.329-0.087c0.263-0.017,0.719,0.026,1.194,0.07c0.539,0.051,1.105,0.104,1.362,0.068
	c0.364-0.052,0.719-0.126,1.056-0.239c0.335-0.112,0.656-0.262,0.958-0.467c0.306-0.208,0.612-0.36,0.935-0.468
	c0.323-0.107,0.657-0.17,1.018-0.197l0,0h0.002h0.001c0.14-0.011,0.265-0.021,0.377-0.016C33.523,36.931,33.572,36.75,33.585,36.622
	L33.585,36.622z M21.964,38.126c0.23,0.314,0.455,0.765,0.664,1.282c0.486,1.202,0.929,2.711,1.042,4.016
	c0.042,0.479,0.089,0.915,0.137,1.352c0.144,1.326,0.289,2.655,0.193,3.993c-0.025,0.341-0.038,0.587-0.009,0.76
	c0.021,0.128,0.073,0.222,0.178,0.307c0.118,0.097,0.256,0.143,0.398,0.149c0.175,0.006,0.36-0.044,0.533-0.134
	c0.557-0.291,1.354-0.493,2.203-0.623c1.047-0.16,2.185-0.214,3.03-0.19c0.505,0.014,1.043,0.014,1.579,0.014
	c0.915,0,1.825,0,2.555,0.067c0.174,0.016,0.262-0.041,0.296-0.137c0.062-0.172,0.044-0.439-0.008-0.722
	c-0.156-0.852-0.313-1.705-0.469-2.557l-0.229-1.245l-0.001-0.008c-0.038-0.242-0.093-0.572-0.148-0.902
	c-0.1-0.598-0.2-1.196-0.279-1.823c-0.09-0.709-0.092-1.509-0.093-2.22c-0.001-0.609-0.002-1.149-0.061-1.481
	c-0.043-0.244-0.164-0.235-0.367-0.219l0,0h-0.002h-0.001c-0.317,0.024-0.604,0.076-0.872,0.166
	c-0.268,0.089-0.525,0.217-0.783,0.392c-0.353,0.239-0.724,0.414-1.108,0.542c-0.381,0.127-0.771,0.209-1.166,0.265
	c-0.326,0.046-0.931-0.01-1.508-0.065c-0.446-0.042-0.875-0.082-1.097-0.068l-1.329,0.087c-0.798,0.052-1.663-0.33-2.384-0.649
	C22.496,38.313,22.174,38.17,21.964,38.126L21.964,38.126z M22.828,42.114c-0.174,0.02-0.347,0.049-0.516,0.084
	c-0.03,0.006-0.06,0.013-0.09,0.02c0.168,0.118,0.331,0.241,0.489,0.367c0.084,0.067,0.165,0.135,0.246,0.206
	c-0.024-0.133-0.049-0.265-0.075-0.398C22.863,42.3,22.845,42.207,22.828,42.114L22.828,42.114z M21.357,42.388
	c-0.412-0.177-0.832-0.323-1.292-0.429c-0.472-0.109-0.989-0.178-1.586-0.197c-0.255-0.008-0.346-0.114-0.407-0.235
	c-0.056,0.032-0.131,0.096-0.226,0.196c-0.158,0.168-0.343,0.417-0.552,0.76c-0.141,0.231-0.309,0.326-0.516,0.445
	c-0.104,0.06-0.223,0.128-0.346,0.225c-0.061,0.049-0.117,0.106-0.175,0.167c-0.136,0.14-0.287,0.296-0.579,0.473
	c-0.431,0.261-1.014,0.542-1.665,0.793c-0.59,0.227-1.232,0.428-1.867,0.569c-0.144,0.031-0.248,0.077-0.312,0.126l0.021,0.008
	c0.015,0.005,0.039,0.011,0.063,0.017c0.151,0.037,0.314,0.077,0.421,0.26c0.101,0.175,0.137,0.316,0.171,0.452
	c0.035,0.142,0.089,0.277,0.136,0.416c0.124,0.287,0.412,0.679,0.848,1.133c0.494,0.515,1.166,1.092,1.994,1.673
	c0.924,0.648,1.869,1.16,2.807,1.67c1.086,0.589,2.164,1.174,3.21,1.963c0.279-0.588,0.675-1.155,1.152-1.636
	c0.346-0.349,0.736-0.654,1.154-0.891c-0.012-0.009-0.024-0.019-0.036-0.029c-0.233-0.191-0.348-0.399-0.396-0.685
	c-0.04-0.241-0.026-0.522,0.002-0.906c0.092-1.285-0.049-2.586-0.191-3.884c-0.039-0.361-0.079-0.723-0.112-1.065
	c-0.228-0.252-0.482-0.487-0.757-0.71C22.025,42.827,21.7,42.602,21.357,42.388L21.357,42.388z M12.177,46.873
	c-0.316,0.308-0.679,0.682-1.069,1.107c-0.495,0.538-1.029,1.151-1.564,1.804l0.001,0.001c-0.103,0.126-0.191,0.232-0.285,0.338
	H9.258c-0.096,0.108-0.193,0.212-0.312,0.333c-0.126,0.127-0.137,0.275-0.124,0.408h0.006c0.012,0.298,1.015,0.358,1.843,0.408
	c0.378,0.023,0.726,0.043,0.98,0.096c1.292,0.263,2.511,0.563,3.584,0.868c1.144,0.327,2.131,0.662,2.869,0.972
	c1.545,0.649,2.857,1.483,4.152,2.305l0.433,0.276c-0.394-0.306-0.782-0.638-1.153-0.998c-0.364-0.353-0.28-0.668-0.2-0.972
	c0.033-0.124,0.065-0.244-0.038-0.324c-1.069-0.831-2.18-1.434-3.298-2.041c-0.952-0.517-1.91-1.037-2.865-1.706
	c-0.866-0.607-1.569-1.211-2.087-1.75C12.651,47.582,12.358,47.199,12.177,46.873L12.177,46.873z M88.68,44.814
	c0.018,0.009,0.026,0.014,0.005-0.001C88.684,44.813,88.683,44.814,88.68,44.814L88.68,44.814z M21.966,53.361
	c0.077,0.205,0.024,0.408-0.031,0.614c-0.035,0.132-0.071,0.269,0.033,0.371c0.773,0.749,1.63,1.378,2.448,1.881
	c1.061,0.651,2.054,1.088,2.718,1.297c0.337,0.042,0.652,0.059,0.946,0.059c5.939-0.011,13.793,0.008,21.37,0.032
	c0.366-0.042,0.719-0.201,0.981-0.435c0.234-0.21,0.391-0.48,0.409-0.778c0.033-0.575,0.069-1.254,0.094-1.937
	c0.025-0.695,0.04-1.407,0.032-2.048c-0.005-0.416-0.119-0.743-0.277-1.011c-0.158-0.269-0.369-0.494-0.563-0.693
	c-0.06-0.043-0.119-0.096-0.185-0.154c-0.208-0.184-0.51-0.452-1.026-0.506c-3.114-0.326-6.334-0.345-9.828-0.365
	c-1.329-0.008-2.698-0.016-4.11-0.041c-0.146,0.077-0.332,0.111-0.566,0.089c-0.702-0.065-1.598-0.065-2.499-0.065
	c-0.544,0.001-1.091,0.001-1.596-0.014c-0.809-0.022-1.905,0.03-2.921,0.185c-0.79,0.121-1.522,0.303-2.009,0.558
	c-0.198,0.103-0.412,0.173-0.626,0.196c-0.611,0.205-1.182,0.592-1.664,1.078C22.608,52.165,22.214,52.757,21.966,53.361
	L21.966,53.361z M50.93,57.558c-0.021,0.021-0.042,0.042-0.065,0.062h0.099C50.953,57.6,50.942,57.579,50.93,57.558L50.93,57.558z"
	/>
</svg>
