<?xml version="1.0" encoding="iso-8859-1"?>
<!-- Generator: Adobe Illustrator 19.0.0, SVG Export Plug-In . SVG Version: 6.00 Build 0)  -->
<svg version="1.1" id="Layer_1" xmlns="http://www.w3.org/2000/svg" xmlns:xlink="http://www.w3.org/1999/xlink" x="0px" y="0px"
	 viewBox="0 0 100 100" style="enable-background:new 0 0 100 100;" xml:space="preserve">
<path id="XMLID_1016_" style="fill-rule:evenodd;clip-rule:evenodd;fill:#231F20;" d="M67.456,33.284c0,0,1.326-0.464,1.394-0.585
	c0.068-0.121,0.337-0.071,0.343-0.211c0.004-0.09-0.197-0.248-0.322-0.368c-0.08,0.049-0.34,0.188-0.873,0.317
	c-0.66,0.158-0.856,0.382-0.897,1.313c-0.04,0.931-0.188,1.112-1.562,1.612c-1.375,0.501-2.708,1.143-2.184,1.958
	c0.524,0.816-0.109,1.441-0.109,1.441l-30.138-5.267c0.014-0.106,0.039-0.209,0.072-0.308l29.663,5.184c0,0,0.633-0.626,0.109-1.441
	c-0.525-0.816,0.809-1.458,2.183-1.958c1.375-0.5,1.522-0.681,1.562-1.611c0.04-0.931,0.237-1.156,0.896-1.314
	c0.104-0.025,0.197-0.05,0.281-0.075c0.512,0.064,0.846,0.108,0.97,0.125c-0.053-0.055-0.086-0.099-0.066-0.122
	c0.066-0.076,0.48-0.12,0.489-0.314c0.008-0.195-0.316-0.255-0.454-0.486c-0.138-0.232-0.778-0.524-1.201-0.456
	c-0.423,0.067-3.734-0.115-5.454-0.539c-1.719-0.424-8.964-1.693-10.735-1.739c-1.771-0.045-4.995-0.262-6.05-0.666
	c-1.055-0.403-1.503-0.485-2.194-0.421c-0.691,0.063-1.205,0.087-1.284,0.306c-0.079,0.218,0.135,0.647-0.704,0.891
	c-0.838,0.244-3.531,1.037-4.36,1.852c-0.827,0.816-1.411,1.362-2.307,1.58c-0.895,0.218-1.956,0.475-2.283,0.741
	c-0.326,0.266-0.222,0.27-0.067,0.475c0.154,0.205,0.144,0.169,0.079,0.318c-0.064,0.149-0.27,0.315-0.012,0.536
	c0.259,0.221,0.447,0.194,0.912,0.237c0.464,0.043,1.065,0.174,1.065,0.174s0.195,1.443-0.405,2.63
	c-0.6,1.186-1.104,2.599-1.173,3.669c-0.069,1.07,0.525,5.017,0.748,5.96c0.224,0.943,2.498,11.287,2.66,12.57
	c0.163,1.282,0.163,2.713-0.374,3.638c-0.538,0.925-1.041,0.701-0.954,1.218c0.087,0.516,0.441,0.579,0.674,0.589
	c0.232,0.01,1.398-1.044,1.549-2.39c0.151-1.347-0.005-3.484-0.001-3.95c0.004-0.465-0.064-0.671-0.051-0.623
	c0.014,0.047,6.407,0.339,10.242,1.531c3.836,1.192,12.106,4.099,12.219,5.099c0.112,1-0.232,3.939,0,5.753
	c0.232,1.814,0.578,2.451,1.166,2.507c0.589,0.056,0.895-0.552,0.791-1.023c-0.105-0.47-0.972-1.254-1.04-2.563
	c-0.068-1.309,0.801-9.17,0.907-9.476c0.107-0.307,1.939-2.77,2.797-3.199c0.858-0.429,1.001-0.493,1.001-0.493
	s-0.423,2.781,0.118,4.273c0.542,1.493,1.107,1.354,1.573,1.375c0.466,0.02,0.505-0.351,0.497-0.702
	c-0.008-0.35-0.871-0.364-1.08-0.91c-0.21-0.545-0.283-3.161,0.291-5.655c0.574-2.494,1.915-9.222,2.124-10.823
	c0.21-1.6,0.745-3.746-0.084-6.16C67.588,34.891,67.354,34.197,67.456,33.284L67.456,33.284z M59.508,64.472l0.769-10.601
	C60.277,53.871,59.205,64.272,59.508,64.472L59.508,64.472z M65.255,54.893c0,0,0.757-6.373,1.048-8.07
	c0.291-1.698,0.897-5.652,0.48-7.505c-0.418-1.852-1.021-2.283-1.021-2.283s0.241,2.343-0.97,2.291
	c-1.21-0.053-1.641-0.165-2.364,0.737c-0.723,0.901-0.365,1.259-0.365,1.259s0.812,4.233,0.747,7.185
	c-0.066,2.951-0.801,6.309-0.801,6.309L65.255,54.893L65.255,54.893z M43.313,50.649l-0.919-11.825c0,0-1.719-1.248-3.628-1.331
	c-1.909-0.082-1.841-0.056-2.176,0.162c-0.336,0.219-1.977,2.037-1.707,4.964c0.27,2.926,1.88,14.238,1.88,14.238
	s4.691-2.223,5.776-4.135C43.625,50.81,43.313,50.649,43.313,50.649L43.313,50.649z M59.968,54.541c0,0,0.759-6.777,0.274-9.224
	c-0.485-2.447-1.319-4.038-4.157-4.564c-2.838-0.527-6.712-0.103-8.628-0.403c-1.914-0.301-3.41-0.956-3.41-0.956l0.356,10.464
	c0,0,1.848,1.852,6.645,3.085C55.848,54.177,59.968,54.541,59.968,54.541L59.968,54.541z"/>
</svg>
