<?xml version="1.0" encoding="iso-8859-1"?>
<!-- Generator: Adobe Illustrator 19.0.0, SVG Export Plug-In . SVG Version: 6.00 Build 0)  -->
<svg version="1.1" id="Layer_1" xmlns="http://www.w3.org/2000/svg" xmlns:xlink="http://www.w3.org/1999/xlink" x="0px" y="0px"
	 viewBox="0 0 100 100" style="enable-background:new 0 0 100 100;" xml:space="preserve">
<path id="XMLID_1242_" style="fill-rule:evenodd;clip-rule:evenodd;fill:#231F20;" d="M26.275,24.464h48.748v48.748H26.275V24.464
	L26.275,24.464z M53.975,33.578c0.936,0.423,1.614,1.657,1.614,3.115c0,1.806-1.041,3.27-2.325,3.27
	c-1.284,0-2.325-1.464-2.325-3.27c0-1.514,0.731-2.788,1.724-3.16l-0.848-4.047h2.898L53.975,33.578L53.975,33.578z M48.178,36.295
	c0.936,0.243,1.614,0.952,1.614,1.789c0,1.038-1.041,1.879-2.325,1.879c-1.284,0-2.325-0.841-2.325-1.879
	c0-0.87,0.731-1.601,1.724-1.815l-0.848-2.325h2.898L48.178,36.295L48.178,36.295z M69.58,53.638
	c0.936,0.136,1.613,0.534,1.613,1.003c0,0.582-1.041,1.054-2.325,1.054c-1.284,0-2.325-0.472-2.325-1.054
	c0-0.487,0.731-0.898,1.724-1.018L67.42,52.32h2.898L69.58,53.638L69.58,53.638z M66.714,48.279c0.77,0.504,1.326,1.975,1.326,3.711
	c0,0.058-0.001,0.114-0.002,0.171H67.42h-0.293l0.16,0.246l0.63,0.968c-0.01,0.051-0.019,0.1-0.03,0.15
	c-0.371,0.076-0.696,0.193-0.944,0.34c-0.35,0.206-0.557,0.475-0.557,0.778c0,0.319,0.233,0.602,0.62,0.813
	c-0.262,0.276-0.56,0.432-0.875,0.432c-0.469,0-0.899-0.345-1.231-0.918l0.013-0.032c0.261-0.642,0.422-1.526,0.422-2.499
	c0-0.773-0.102-1.491-0.275-2.075c-0.104-0.35-0.234-0.654-0.385-0.897c0.248-0.594,0.581-1.035,0.962-1.242l-0.697-4.822h2.382
	L66.714,48.279L66.714,48.279z M64.201,49.152c0.564,0.446,0.973,1.748,0.973,3.285c0,1.905-0.628,3.45-1.402,3.45
	c-0.773,0-1.401-1.545-1.401-3.45c0-1.597,0.441-2.94,1.039-3.334l-0.511-4.268h1.747L64.201,49.152L64.201,49.152z M61.479,70.377
	h11.274v1.083H61.479V70.377L61.479,70.377z M61.479,64.199h11.274v1.083H61.479V64.199L61.479,64.199z M60.588,65.855h11.273v1.083
	H60.588V65.855L60.588,65.855z M61.464,67.447h11.273v1.083H61.464V67.447L61.464,67.447z M60.604,68.944h11.274v1.083H60.604
	V68.944L60.604,68.944z M48.199,67.591h8.726v3.949h-8.726V67.591L48.199,67.591z M47.817,65.298h9.49v1.847h-9.49V65.298
	L47.817,65.298z M27.889,60.431l1.117-0.258l2.567,11.109l-1.117,0.258L27.889,60.431L27.889,60.431z M33.847,62.919l0.867-0.75
	l7.462,8.621l-0.867,0.75L33.847,62.919L33.847,62.919z M31.872,62.919l0.867-0.75l7.462,8.621l-0.867,0.75L31.872,62.919
	L31.872,62.919z M29.462,61.565l1.003-0.556l5.521,9.975l-1.003,0.555L29.462,61.565L29.462,61.565z M50.071,61.896h7.086v2.637
	h-7.086V61.896L50.071,61.896z M49.76,60.364h7.707v1.234H49.76V60.364L49.76,60.364z M50.173,45.019l-1.053-0.454l-4.514,10.469
	l1.053,0.454L50.173,45.019L50.173,45.019z M57.639,44.38l-1.117-0.258L53.955,55.23l1.117,0.258L57.639,44.38L57.639,44.38z
	 M55.664,44.38l-1.117-0.258L51.981,55.23l1.117,0.258L55.664,44.38L55.664,44.38z M53.881,44.38l-1.117-0.258L50.198,55.23
	l1.117,0.258L53.881,44.38L53.881,44.38z M52.084,45.019l-1.053-0.454l-4.514,10.469l1.053,0.454L52.084,45.019L52.084,45.019z
	 M31.153,46.036h7.087v2.637h-7.087V46.036L31.153,46.036z M30.843,44.505h7.707v1.233h-7.707V44.505L30.843,44.505z M30.811,51.54
	h8.726v3.949h-8.726V51.54L30.811,51.54z M30.429,49.247h9.49v1.847h-9.49V49.247L30.429,49.247z M73.576,28.896l-1.117-0.258
	l-2.567,11.109l1.117,0.258L73.576,28.896L73.576,28.896z M35.257,29.535l1.053-0.454l4.514,10.469l-1.053,0.454L35.257,29.535
	L35.257,29.535z M27.791,28.896l1.117-0.258l2.567,11.109l-1.117,0.258L27.791,28.896L27.791,28.896z M29.765,28.896l1.117-0.258
	l2.567,11.109l-1.117,0.258L29.765,28.896L29.765,28.896z M31.549,28.896l1.117-0.258l2.566,11.109l-1.117,0.258L31.549,28.896
	L31.549,28.896z M33.346,29.535l1.053-0.454l4.514,10.469l-1.053,0.454L33.346,29.535L33.346,29.535z M67.618,31.384l-0.867-0.75
	l-7.462,8.621l0.867,0.75L67.618,31.384L67.618,31.384z M69.593,31.384l-0.867-0.75l-7.462,8.621l0.867,0.75L69.593,31.384
	L69.593,31.384z M72.003,30.029L71,29.474l-5.521,9.975l1.003,0.555L72.003,30.029L72.003,30.029z M71.373,73.657h1.242v1.879
	h-1.242V73.657L71.373,73.657z M28.682,73.657h1.242v1.879h-1.242V73.657L28.682,73.657z M27.178,57.414h15.046V72.46H27.178V57.414
	L27.178,57.414z M27.178,25.517h15.046v15.046H27.178V25.517L27.178,25.517z M43.126,25.517h15.046v15.046H43.126V25.517
	L43.126,25.517z M59.074,25.517H74.12v15.046H59.074V25.517L59.074,25.517z M27.178,41.466h15.046v15.046H27.178V41.466
	L27.178,41.466z M43.126,41.466h15.046v15.046H43.126V41.466L43.126,41.466z M43.126,57.414h15.046V72.46H43.126V57.414
	L43.126,57.414z M59.074,57.414H74.12V72.46H59.074V57.414L59.074,57.414z M59.074,41.466H74.12v15.046H59.074V41.466L59.074,41.466
	z"/>
</svg>
